%FSLAX24Y24*%
%MOIN*%
G70*
G01*
G75*
%ADD10R,0.0433X0.0394*%
%ADD11R,0.0591X0.1102*%
%ADD12R,0.0394X0.0433*%
%ADD13R,0.0709X0.0256*%
%ADD14R,0.0256X0.0709*%
%ADD15R,0.0256X0.1024*%
%ADD16R,0.1024X0.0256*%
%ADD17R,0.0276X0.0354*%
%ADD18C,0.0394*%
%ADD19R,0.0709X0.0630*%
%ADD20R,0.0354X0.0276*%
%ADD21O,0.0571X0.0098*%
%ADD22R,0.0236X0.0748*%
%ADD23R,0.1220X0.0748*%
%ADD24R,0.0276X0.0394*%
%ADD25R,0.0256X0.0157*%
%ADD26R,0.0591X0.0512*%
%ADD27R,0.0394X0.0276*%
%ADD28R,0.0276X0.0709*%
%ADD29O,0.0748X0.0236*%
%ADD30R,0.0276X0.0177*%
%ADD31R,0.0650X0.0965*%
%ADD32R,0.0177X0.0207*%
%ADD33O,0.0335X0.0118*%
%ADD34O,0.0118X0.0335*%
%ADD35R,0.0984X0.0984*%
%ADD36O,0.0098X0.0256*%
%ADD37O,0.0256X0.0098*%
%ADD38R,0.0276X0.0118*%
%ADD39R,0.0681X0.0728*%
%ADD40O,0.0402X0.0161*%
%ADD41R,0.1102X0.1102*%
%ADD42R,0.0118X0.0118*%
%ADD43R,0.0118X0.0118*%
%ADD44R,0.0866X0.1102*%
%ADD45R,0.1102X0.1102*%
%ADD46R,0.0433X0.0472*%
%ADD47C,0.0080*%
%ADD48C,0.0120*%
%ADD49C,0.0200*%
%ADD50C,0.0250*%
%ADD51C,0.0350*%
%ADD52C,0.0060*%
%ADD53C,0.0500*%
%ADD54C,0.0100*%
%ADD55C,0.0300*%
%ADD56C,0.0705*%
%ADD57C,0.0500*%
%ADD58C,0.1969*%
%ADD59C,0.1299*%
%ADD60C,0.1496*%
%ADD61R,0.0630X0.0630*%
%ADD62C,0.0630*%
%ADD63C,0.0945*%
%ADD64C,0.0200*%
%ADD65C,0.0240*%
%ADD66C,0.0400*%
%ADD67C,0.0260*%
%ADD68C,0.0160*%
%ADD69C,0.0400*%
%ADD70C,0.0750*%
%ADD71C,0.1680*%
%ADD72C,0.0770*%
%ADD73C,0.1581*%
%ADD74C,0.1109*%
%ADD75C,0.1306*%
%ADD76C,0.0762*%
%ADD77C,0.0951*%
%ADD78C,0.1069*%
%ADD79C,0.0520*%
%ADD80C,0.0600*%
%ADD81C,0.0680*%
%ADD82C,0.1778*%
%ADD83C,0.0530*%
%ADD84R,0.2205X0.0827*%
%ADD85R,0.0118X0.0276*%
%ADD86O,0.0138X0.0551*%
%ADD87C,0.0157*%
%ADD88C,0.0098*%
%ADD89C,0.0039*%
%ADD90C,0.0079*%
%ADD91C,0.0020*%
%ADD92C,0.0063*%
%ADD93C,0.0032*%
%ADD94C,0.0059*%
%ADD95R,0.0513X0.0474*%
%ADD96R,0.0671X0.1182*%
%ADD97R,0.0474X0.0513*%
%ADD98R,0.0789X0.0336*%
%ADD99R,0.0336X0.0789*%
%ADD100R,0.0336X0.1104*%
%ADD101R,0.1104X0.0336*%
%ADD102R,0.0356X0.0434*%
%ADD103C,0.0474*%
%ADD104R,0.0789X0.0710*%
%ADD105R,0.0434X0.0356*%
%ADD106O,0.0651X0.0178*%
%ADD107R,0.0316X0.0828*%
%ADD108R,0.1300X0.0828*%
%ADD109R,0.0356X0.0474*%
%ADD110R,0.0336X0.0237*%
%ADD111R,0.0671X0.0592*%
%ADD112R,0.0474X0.0356*%
%ADD113R,0.0356X0.0789*%
%ADD114O,0.0828X0.0316*%
%ADD115R,0.0356X0.0257*%
%ADD116R,0.0730X0.1045*%
%ADD117R,0.0257X0.0287*%
%ADD118O,0.0415X0.0198*%
%ADD119O,0.0198X0.0415*%
%ADD120R,0.1064X0.1064*%
%ADD121O,0.0178X0.0336*%
%ADD122O,0.0336X0.0178*%
%ADD123R,0.0356X0.0198*%
%ADD124R,0.0761X0.0808*%
%ADD125O,0.0482X0.0241*%
%ADD126R,0.1182X0.1182*%
%ADD127R,0.0198X0.0198*%
%ADD128R,0.0198X0.0198*%
%ADD129R,0.0946X0.1182*%
%ADD130R,0.1182X0.1182*%
%ADD131R,0.0513X0.0552*%
%ADD132C,0.0785*%
%ADD133C,0.0080*%
%ADD134C,0.0580*%
%ADD135C,0.2049*%
%ADD136C,0.1379*%
%ADD137C,0.1576*%
%ADD138R,0.0710X0.0710*%
%ADD139C,0.0710*%
%ADD140C,0.1025*%
%ADD141C,0.0320*%
%ADD142C,0.0480*%
%ADD143R,0.2285X0.0907*%
%ADD144R,0.0198X0.0356*%
%ADD145O,0.0218X0.0631*%
%ADD146C,0.0340*%
%ADD147C,0.0236*%
%ADD148C,0.0118*%
%ADD149C,0.0067*%
%ADD150C,0.0040*%
D91*
X21923Y3856D02*
X22274D01*
X22099Y3680D02*
Y4031D01*
X20923Y3856D02*
X21274D01*
X21099Y3680D02*
Y4031D01*
X22423Y4856D02*
X22774D01*
X22599Y4680D02*
Y5031D01*
X21423Y4856D02*
X21774D01*
X21599Y4680D02*
Y5031D01*
X23207Y1356D02*
X24486D01*
X23847Y716D02*
Y1995D01*
X19207Y1356D02*
X20486D01*
X19847Y716D02*
Y1995D01*
X16490Y3856D02*
X16841D01*
X16666Y3680D02*
Y4031D01*
X15490Y3856D02*
X15841D01*
X15666Y3680D02*
Y4031D01*
X16990Y4856D02*
X17341D01*
X17166Y4680D02*
Y5031D01*
X15990Y4856D02*
X16341D01*
X16166Y4680D02*
Y5031D01*
X17774Y1356D02*
X19053D01*
X18414Y716D02*
Y1995D01*
X13774Y1356D02*
X15053D01*
X14414Y716D02*
Y1995D01*
X11057Y3856D02*
X11408D01*
X11232Y3680D02*
Y4031D01*
X10057Y3856D02*
X10408D01*
X10232Y3680D02*
Y4031D01*
X11557Y4856D02*
X11908D01*
X11732Y4680D02*
Y5031D01*
X10557Y4856D02*
X10908D01*
X10732Y4680D02*
Y5031D01*
X12341Y1356D02*
X13620D01*
X12980Y716D02*
Y1995D01*
X8341Y1356D02*
X9620D01*
X8980Y716D02*
Y1995D01*
X27356Y3856D02*
X27707D01*
X27532Y3680D02*
Y4031D01*
X26356Y3856D02*
X26707D01*
X26532Y3680D02*
Y4031D01*
X27856Y4856D02*
X28207D01*
X28032Y4680D02*
Y5031D01*
X26856Y4856D02*
X27207D01*
X27032Y4680D02*
Y5031D01*
X28640Y1356D02*
X29919D01*
X29280Y716D02*
Y1995D01*
X24640Y1356D02*
X25919D01*
X25280Y716D02*
Y1995D01*
X5624Y3856D02*
X5975D01*
X5799Y3680D02*
Y4031D01*
X4624Y3856D02*
X4975D01*
X4799Y3680D02*
Y4031D01*
X6124Y4856D02*
X6475D01*
X6299Y4680D02*
Y5031D01*
X5124Y4856D02*
X5475D01*
X5299Y4680D02*
Y5031D01*
X6908Y1356D02*
X8187D01*
X7547Y716D02*
Y1995D01*
X2908Y1356D02*
X4187D01*
X3547Y716D02*
Y1995D01*
X2155Y14344D02*
X2525D01*
X2340Y14159D02*
Y14529D01*
X1155Y14344D02*
X1525D01*
X1340Y14159D02*
Y14529D01*
X2155Y15344D02*
X2525D01*
X2340Y15159D02*
Y15529D01*
X1155Y15344D02*
X1525D01*
X1340Y15159D02*
Y15529D01*
X2155Y16344D02*
X2525D01*
X2340Y16159D02*
Y16529D01*
X1155Y16344D02*
X1525D01*
X1340Y16159D02*
Y16529D01*
X2155Y17344D02*
X2525D01*
X2340Y17159D02*
Y17529D01*
X1155Y17344D02*
X1525D01*
X1340Y17159D02*
Y17529D01*
X2155Y18344D02*
X2525D01*
X2340Y18159D02*
Y18529D01*
X1155Y18344D02*
X1525D01*
X1340Y18159D02*
Y18529D01*
X2155Y19344D02*
X2525D01*
X2340Y19159D02*
Y19529D01*
X1155Y19344D02*
X1525D01*
X1340Y19159D02*
Y19529D01*
X2155Y20344D02*
X2525D01*
X2340Y20159D02*
Y20529D01*
X1155Y20344D02*
X1525D01*
X1340Y20159D02*
Y20529D01*
X2155Y21344D02*
X2525D01*
X2340Y21159D02*
Y21529D01*
X1155Y21344D02*
X1525D01*
X1340Y21159D02*
Y21529D01*
X2155Y22344D02*
X2525D01*
X2340Y22159D02*
Y22529D01*
X1155Y22344D02*
X1525D01*
X1340Y22159D02*
Y22529D01*
X2155Y23344D02*
X2525D01*
X2340Y23159D02*
Y23529D01*
X1155Y23344D02*
X1525D01*
X1340Y23159D02*
Y23529D01*
X4705Y17240D02*
X5075D01*
X4890Y17055D02*
Y17425D01*
X5705Y17240D02*
X6075D01*
X5890Y17055D02*
Y17425D01*
X4705Y18240D02*
X5075D01*
X4890Y18055D02*
Y18425D01*
X5705Y18240D02*
X6075D01*
X5890Y18055D02*
Y18425D01*
X4705Y19240D02*
X5075D01*
X4890Y19055D02*
Y19425D01*
X5705Y19240D02*
X6075D01*
X5890Y19055D02*
Y19425D01*
X4705Y20240D02*
X5075D01*
X4890Y20055D02*
Y20425D01*
X5705Y20240D02*
X6075D01*
X5890Y20055D02*
Y20425D01*
X4705Y21240D02*
X5075D01*
X4890Y21055D02*
Y21425D01*
X5705Y21240D02*
X6075D01*
X5890Y21055D02*
Y21425D01*
X4705Y22240D02*
X5075D01*
X4890Y22055D02*
Y22425D01*
X5705Y22240D02*
X6075D01*
X5890Y22055D02*
Y22425D01*
X4705Y23240D02*
X5075D01*
X4890Y23055D02*
Y23425D01*
X5705Y23240D02*
X6075D01*
X5890Y23055D02*
Y23425D01*
X4705Y24240D02*
X5075D01*
X4890Y24055D02*
Y24425D01*
X5705Y24240D02*
X6075D01*
X5890Y24055D02*
Y24425D01*
X4705Y25240D02*
X5075D01*
X4890Y25055D02*
Y25425D01*
X5705Y25240D02*
X6075D01*
X5890Y25055D02*
Y25425D01*
X4705Y26240D02*
X5075D01*
X4890Y26055D02*
Y26425D01*
X5705Y26240D02*
X6075D01*
X5890Y26055D02*
Y26425D01*
X47081Y27300D02*
X48459D01*
X47770Y26611D02*
Y27989D01*
X791Y27300D02*
X2169D01*
X1480Y26611D02*
Y27989D01*
X47091Y1470D02*
X48469D01*
X47780Y781D02*
Y2159D01*
X781Y1480D02*
X2159D01*
X1470Y791D02*
Y2169D01*
X47791Y23895D02*
X48973D01*
X48382Y23304D02*
Y24486D01*
X45154Y24722D02*
X45862D01*
X45508Y24367D02*
Y25076D01*
X45154Y23068D02*
X45862D01*
X45508Y22714D02*
Y23423D01*
X42988Y24722D02*
X43697D01*
X43343Y24367D02*
Y25076D01*
X42988Y23068D02*
X43697D01*
X43343Y22714D02*
Y23423D01*
X47343Y21226D02*
X48248D01*
X47795Y20773D02*
Y21678D01*
X45760Y19348D02*
X46122D01*
X45941Y19167D02*
Y19529D01*
X45760Y18363D02*
X46122D01*
X45941Y18182D02*
Y18545D01*
X46547Y19348D02*
X46910D01*
X46729Y19167D02*
Y19529D01*
X46547Y18363D02*
X46910D01*
X46729Y18182D02*
Y18545D01*
X47343Y16486D02*
X48248D01*
X47795Y16033D02*
Y16938D01*
X34534Y27061D02*
X35085D01*
X34809Y26785D02*
Y27336D01*
X34534Y23311D02*
X35085D01*
X34809Y23035D02*
Y23586D01*
X40784Y27061D02*
X41335D01*
X41059Y26785D02*
Y27336D01*
X40784Y25811D02*
X41335D01*
X41059Y25535D02*
Y26086D01*
X40784Y23311D02*
X41335D01*
X41059Y23035D02*
Y23586D01*
X22373Y23497D02*
X22493D01*
X22433Y23437D02*
Y23557D01*
X22373Y23167D02*
X22493D01*
X22433Y23107D02*
Y23227D01*
X22373Y22837D02*
X22493D01*
X22433Y22777D02*
Y22897D01*
X22033Y22837D02*
X22153D01*
X22093Y22777D02*
Y22897D01*
X22033Y23167D02*
X22153D01*
X22093Y23107D02*
Y23227D01*
X22033Y23497D02*
X22153D01*
X22093Y23437D02*
Y23557D01*
X21683Y23497D02*
X21803D01*
X21743Y23437D02*
Y23557D01*
X21683Y23167D02*
X21803D01*
X21743Y23107D02*
Y23227D01*
X21683Y22837D02*
X21803D01*
X21743Y22777D02*
Y22897D01*
X47772Y12871D02*
X48441D01*
X48106Y12537D02*
Y13206D01*
X45016Y12871D02*
X45685D01*
X45351Y12537D02*
Y13206D01*
X35506Y1356D02*
X36786D01*
X36146Y716D02*
Y1995D01*
X39506Y1356D02*
X40786D01*
X40146Y716D02*
Y1995D01*
X37723Y4856D02*
X38073D01*
X37898Y4680D02*
Y5031D01*
X38723Y4856D02*
X39073D01*
X38898Y4680D02*
Y5031D01*
X37223Y3856D02*
X37573D01*
X37398Y3680D02*
Y4031D01*
X38223Y3856D02*
X38573D01*
X38398Y3680D02*
Y4031D01*
X30073Y1356D02*
X31353D01*
X30713Y716D02*
Y1995D01*
X34073Y1356D02*
X35353D01*
X34713Y716D02*
Y1995D01*
X32290Y4856D02*
X32640D01*
X32465Y4680D02*
Y5031D01*
X33290Y4856D02*
X33640D01*
X33465Y4680D02*
Y5031D01*
X31790Y3856D02*
X32140D01*
X31965Y3680D02*
Y4031D01*
X32790Y3856D02*
X33140D01*
X32965Y3680D02*
Y4031D01*
X40948Y1350D02*
X42228D01*
X41588Y710D02*
Y1990D01*
X44948Y1350D02*
X46228D01*
X45588Y710D02*
Y1990D01*
X43165Y4850D02*
X43515D01*
X43340Y4675D02*
Y5025D01*
X44165Y4850D02*
X44515D01*
X44340Y4675D02*
Y5025D01*
X42665Y3850D02*
X43015D01*
X42840Y3675D02*
Y4025D01*
X43665Y3850D02*
X44015D01*
X43840Y3675D02*
Y4025D01*
X11890Y11260D02*
X12010D01*
X11950Y11200D02*
Y11320D01*
X13220Y26178D02*
X13340D01*
X13280Y26118D02*
Y26238D01*
X13810Y25260D02*
X13930D01*
X13870Y25200D02*
Y25320D01*
X11800Y26140D02*
X11920D01*
X11860Y26080D02*
Y26200D01*
X28690Y22090D02*
X28810D01*
X28750Y22030D02*
Y22150D01*
X29250Y23370D02*
X29370D01*
X29310Y23310D02*
Y23430D01*
X37730Y28230D02*
X37850D01*
X37790Y28170D02*
Y28290D01*
X41770Y22160D02*
X41890D01*
X41830Y22100D02*
Y22220D01*
X23190Y14750D02*
X23310D01*
X23250Y14690D02*
Y14810D01*
X21000Y14510D02*
X21120D01*
X21060Y14450D02*
Y14570D01*
X20990Y13830D02*
X21110D01*
X21050Y13770D02*
Y13890D01*
X32900Y22630D02*
X33020D01*
X32960Y22570D02*
Y22690D01*
X25600Y15630D02*
X25720D01*
X25660Y15570D02*
Y15690D01*
X27060Y21840D02*
X27180D01*
X27120Y21780D02*
Y21900D01*
X29890Y23370D02*
X30010D01*
X29950Y23310D02*
Y23430D01*
X31629Y20411D02*
X31749D01*
X31689Y20351D02*
Y20471D01*
X31900Y19240D02*
X32020D01*
X31960Y19180D02*
Y19300D01*
X32360Y18800D02*
X32480D01*
X32420Y18740D02*
Y18860D01*
X31590Y18200D02*
X31710D01*
X31650Y18140D02*
Y18260D01*
X13210Y20620D02*
X13330D01*
X13270Y20560D02*
Y20680D01*
X12980Y17850D02*
X13100D01*
X13040Y17790D02*
Y17910D01*
X16930Y19070D02*
X17050D01*
X16990Y19010D02*
Y19130D01*
X35200Y19790D02*
X35320D01*
X35260Y19730D02*
Y19850D01*
X35040Y20180D02*
X35160D01*
X35100Y20120D02*
Y20240D01*
X35320Y18210D02*
X35440D01*
X35380Y18150D02*
Y18270D01*
X17500Y22070D02*
X17620D01*
X17560Y22010D02*
Y22130D01*
X15880Y22060D02*
X16000D01*
X15940Y22000D02*
Y22120D01*
X19060Y24830D02*
X19180D01*
X19120Y24770D02*
Y24890D01*
X27150Y18570D02*
X27270D01*
X27210Y18510D02*
Y18630D01*
X25569D02*
X25689D01*
X25629Y18570D02*
Y18690D01*
X24700Y17150D02*
X24820D01*
X24760Y17090D02*
Y17210D01*
X14460Y17530D02*
X14580D01*
X14520Y17470D02*
Y17590D01*
X20850Y16580D02*
X20970D01*
X20910Y16520D02*
Y16640D01*
X20290Y18890D02*
X20490D01*
X20390Y18790D02*
Y18990D01*
X19582Y24171D02*
X19702D01*
X19642Y24111D02*
Y24231D01*
X18991Y24328D02*
X19111D01*
X19051Y24268D02*
Y24388D01*
X28830Y27570D02*
X28950D01*
X28890Y27510D02*
Y27630D01*
X7780Y24710D02*
X7900D01*
X7840Y24650D02*
Y24770D01*
X7920Y25170D02*
X8040D01*
X7980Y25110D02*
Y25230D01*
X8560Y19690D02*
X8680D01*
X8620Y19630D02*
Y19750D01*
X11370Y20300D02*
X11490D01*
X11430Y20240D02*
Y20360D01*
X12610Y17600D02*
X12730D01*
X12670Y17540D02*
Y17660D01*
X12800Y18290D02*
X12920D01*
X12860Y18230D02*
Y18350D01*
X33430Y22890D02*
X33550D01*
X33490Y22830D02*
Y22950D01*
X35600Y21790D02*
X35720D01*
X35660Y21730D02*
Y21850D01*
X32210Y22500D02*
X32330D01*
X32270Y22440D02*
Y22560D01*
X36680Y22513D02*
X36880D01*
X36780Y22413D02*
Y22613D01*
X34060Y12580D02*
X34180D01*
X34120Y12520D02*
Y12640D01*
X36130Y17540D02*
X36250D01*
X36190Y17480D02*
Y17600D01*
X33470Y21740D02*
X33590D01*
X33530Y21680D02*
Y21800D01*
X26330Y17280D02*
X26450D01*
X26390Y17220D02*
Y17340D01*
X36330Y21140D02*
X36450D01*
X36390Y21080D02*
Y21200D01*
X10720Y27970D02*
X10840D01*
X10780Y27910D02*
Y28030D01*
X9849Y27290D02*
X9969D01*
X9909Y27230D02*
Y27350D01*
X11310Y27949D02*
X11430D01*
X11370Y27889D02*
Y28009D01*
X9849Y27870D02*
X9969D01*
X9909Y27810D02*
Y27930D01*
X1850Y11090D02*
X1970D01*
X1910Y11030D02*
Y11150D01*
X18930Y25620D02*
X19050D01*
X18990Y25560D02*
Y25680D01*
X7610Y23900D02*
X7730D01*
X7670Y23840D02*
Y23960D01*
X43970Y16450D02*
X44090D01*
X44030Y16390D02*
Y16510D01*
X17240Y11250D02*
X17360D01*
X17300Y11190D02*
Y11310D01*
X42040Y16090D02*
X42160D01*
X42100Y16030D02*
Y16150D01*
X44740Y20850D02*
X44860D01*
X44800Y20790D02*
Y20910D01*
X30550Y27510D02*
X30670D01*
X30610Y27450D02*
Y27570D01*
X38620Y18110D02*
X38740D01*
X38680Y18050D02*
Y18170D01*
X36150Y16360D02*
X36270D01*
X36210Y16300D02*
Y16420D01*
X37130Y16370D02*
X37250D01*
X37190Y16310D02*
Y16430D01*
X40790Y16570D02*
X40990D01*
X40890Y16470D02*
Y16670D01*
X40800Y15280D02*
X41000D01*
X40900Y15180D02*
Y15380D01*
X30220Y16930D02*
X30420D01*
X30320Y16830D02*
Y17030D01*
X31040Y13530D02*
X31160D01*
X31100Y13470D02*
Y13590D01*
X44360Y15980D02*
X44480D01*
X44420Y15920D02*
Y16040D01*
X48700Y15220D02*
X48820D01*
X48760Y15160D02*
Y15280D01*
X46180Y13910D02*
X46300D01*
X46240Y13850D02*
Y13970D01*
X48470Y13440D02*
X48590D01*
X48530Y13380D02*
Y13500D01*
X47320Y7940D02*
X47440D01*
X47380Y7880D02*
Y8000D01*
X46420Y5750D02*
X46540D01*
X46480Y5690D02*
Y5810D01*
X13700Y5760D02*
X13980D01*
X13840Y5620D02*
Y5900D01*
X24180Y8780D02*
X24460D01*
X24320Y8640D02*
Y8920D01*
X21630Y9220D02*
X21750D01*
X21690Y9160D02*
Y9280D01*
X29540Y8760D02*
X29820D01*
X29680Y8620D02*
Y8900D01*
X32460Y9200D02*
X32580D01*
X32520Y9140D02*
Y9260D01*
X24970Y6860D02*
X25250D01*
X25110Y6720D02*
Y7000D01*
X27100Y9200D02*
X27220D01*
X27160Y9140D02*
Y9260D01*
X30360Y6830D02*
X30640D01*
X30500Y6690D02*
Y6970D01*
X41360Y6850D02*
X41640D01*
X41500Y6710D02*
Y6990D01*
X35910Y6790D02*
X36190D01*
X36050Y6650D02*
Y6930D01*
X40560Y8730D02*
X40840D01*
X40700Y8590D02*
Y8870D01*
X25400Y13680D02*
X25520D01*
X25460Y13620D02*
Y13740D01*
X40810Y5740D02*
X41090D01*
X40950Y5600D02*
Y5880D01*
X43290Y9230D02*
X43410D01*
X43350Y9170D02*
Y9290D01*
X35100Y8730D02*
X35380D01*
X35240Y8590D02*
Y8870D01*
X37890Y9210D02*
X38010D01*
X37950Y9150D02*
Y9270D01*
X30010Y5750D02*
X30290D01*
X30150Y5610D02*
Y5890D01*
X35380Y5750D02*
X35660D01*
X35520Y5610D02*
Y5890D01*
X44450Y11280D02*
X44570D01*
X44510Y11220D02*
Y11340D01*
X6490Y11250D02*
X6610D01*
X6550Y11190D02*
Y11310D01*
X16200Y9190D02*
X16320D01*
X16260Y9130D02*
Y9250D01*
X28130Y11240D02*
X28250D01*
X28190Y11180D02*
Y11300D01*
X18810Y8770D02*
X19090D01*
X18950Y8630D02*
Y8910D01*
X22130Y12300D02*
X22410D01*
X22270Y12160D02*
Y12440D01*
X19120Y5760D02*
X19400D01*
X19260Y5620D02*
Y5900D01*
X19630Y6890D02*
X19910D01*
X19770Y6750D02*
Y7030D01*
X24590Y5760D02*
X24870D01*
X24730Y5620D02*
Y5900D01*
X14150Y6920D02*
X14430D01*
X14290Y6780D02*
Y7060D01*
X10770Y9170D02*
X10890D01*
X10830Y9110D02*
Y9230D01*
X8740Y6900D02*
X9020D01*
X8880Y6760D02*
Y7040D01*
X13350Y8730D02*
X13630D01*
X13490Y8590D02*
Y8870D01*
X7920Y8770D02*
X8200D01*
X8060Y8630D02*
Y8910D01*
X8310Y5750D02*
X8590D01*
X8450Y5610D02*
Y5890D01*
X5380Y9210D02*
X5500D01*
X5440Y9150D02*
Y9270D01*
X3060Y5760D02*
X3340D01*
X3200Y5620D02*
Y5900D01*
X2580Y7170D02*
X2860D01*
X2720Y7030D02*
Y7310D01*
X3350Y6950D02*
X3630D01*
X3490Y6810D02*
Y7090D01*
X30479Y22566D02*
X30609D01*
X30544Y22501D02*
Y22631D01*
X30951Y22566D02*
X31081D01*
X31016Y22501D02*
Y22631D01*
X30479Y22094D02*
X30609D01*
X30544Y22029D02*
Y22159D01*
X30951Y22094D02*
X31081D01*
X31016Y22029D02*
Y22159D01*
X33570Y11240D02*
X33690D01*
X33630Y11180D02*
Y11300D01*
X39000Y11260D02*
X39120D01*
X39060Y11200D02*
Y11320D01*
X18890Y27360D02*
X19170D01*
X19030Y27220D02*
Y27500D01*
X34560Y14610D02*
X34680D01*
X34620Y14550D02*
Y14670D01*
X24180Y25260D02*
X24300D01*
X24240Y25200D02*
Y25320D01*
X25050Y25010D02*
X25170D01*
X25110Y24950D02*
Y25070D01*
X16940Y28000D02*
X17060D01*
X17000Y27940D02*
Y28060D01*
X24310Y27910D02*
X24430D01*
X24370Y27850D02*
Y27970D01*
X23090Y27380D02*
X23210D01*
X23150Y27320D02*
Y27440D01*
X20080Y26000D02*
X20200D01*
X20140Y25940D02*
Y26060D01*
X17470Y26120D02*
X17590D01*
X17530Y26060D02*
Y26180D01*
X18320Y26000D02*
X18440D01*
X18380Y25940D02*
Y26060D01*
X12540Y25550D02*
X12660D01*
X12600Y25490D02*
Y25610D01*
X17460Y27940D02*
X17580D01*
X17520Y27880D02*
Y28000D01*
X1420Y8290D02*
X1540D01*
X1480Y8230D02*
Y8350D01*
X250Y11030D02*
X370D01*
X310Y10970D02*
Y11090D01*
X780Y7810D02*
X900D01*
X840Y7750D02*
Y7870D01*
X18250Y27940D02*
X18370D01*
X18310Y27880D02*
Y28000D01*
X30540Y15060D02*
X30660D01*
X30600Y15000D02*
Y15120D01*
X8240Y16820D02*
X8360D01*
X8300Y16760D02*
Y16880D01*
X8780Y15180D02*
X8900D01*
X8840Y15120D02*
Y15240D01*
X14480Y16350D02*
X14600D01*
X14540Y16290D02*
Y16410D01*
X10740Y16750D02*
X10860D01*
X10800Y16690D02*
Y16810D01*
X32790Y16160D02*
X32910D01*
X32850Y16100D02*
Y16220D01*
X32410Y16750D02*
X32530D01*
X32470Y16690D02*
Y16810D01*
X33030Y13070D02*
X33150D01*
X33090Y13010D02*
Y13130D01*
X15500Y20600D02*
X15620D01*
X15560Y20540D02*
Y20660D01*
X19050Y16570D02*
X19250D01*
X19150Y16470D02*
Y16670D01*
X19050Y15470D02*
X19250D01*
X19150Y15370D02*
Y15570D01*
X8670Y18090D02*
X8870D01*
X8770Y17990D02*
Y18190D01*
X7534Y18064D02*
X7734D01*
X7634Y17964D02*
Y18164D01*
X12870Y14610D02*
X12990D01*
X12930Y14550D02*
Y14670D01*
X14310Y15960D02*
X14430D01*
X14370Y15900D02*
Y16020D01*
X11190Y13050D02*
X11310D01*
X11250Y12990D02*
Y13110D01*
X12800Y20240D02*
X12920D01*
X12860Y20180D02*
Y20300D01*
X15760Y24070D02*
X15880D01*
X15820Y24010D02*
Y24130D01*
X29850Y28040D02*
X29970D01*
X29910Y27980D02*
Y28100D01*
X15850Y20200D02*
X15970D01*
X15910Y20140D02*
Y20260D01*
X28180Y26640D02*
X28380D01*
X28280Y26540D02*
Y26740D01*
X25600Y26840D02*
X25800D01*
X25700Y26740D02*
Y26940D01*
X31250Y26120D02*
X31450D01*
X31350Y26020D02*
Y26220D01*
X37160Y24740D02*
X37360D01*
X37260Y24640D02*
Y24840D01*
X36440Y25720D02*
X36640D01*
X36540Y25620D02*
Y25820D01*
X38760Y24130D02*
X38960D01*
X38860Y24030D02*
Y24230D01*
X44010Y27570D02*
X44210D01*
X44110Y27470D02*
Y27670D01*
X12680Y13020D02*
X12800D01*
X12740Y12960D02*
Y13080D01*
X41160Y17860D02*
X41280D01*
X41220Y17800D02*
Y17920D01*
X45250Y19620D02*
X45370D01*
X45310Y19560D02*
Y19680D01*
X41500Y19330D02*
X41620D01*
X41560Y19270D02*
Y19390D01*
X22710Y25560D02*
X22830D01*
X22770Y25500D02*
Y25620D01*
X20900Y26900D02*
X21020D01*
X20960Y26840D02*
Y26960D01*
X21680Y25800D02*
X21800D01*
X21740Y25740D02*
Y25860D01*
X21420Y26140D02*
X21540D01*
X21480Y26080D02*
Y26200D01*
X20640Y26010D02*
X20760D01*
X20700Y25950D02*
Y26070D01*
X21940Y25470D02*
X22060D01*
X22000Y25410D02*
Y25530D01*
X23130Y25490D02*
X23250D01*
X23190Y25430D02*
Y25550D01*
X23540Y26150D02*
X23660D01*
X23600Y26090D02*
Y26210D01*
X41640Y13530D02*
X41760D01*
X41700Y13470D02*
Y13590D01*
X32400Y15940D02*
X32520D01*
X32460Y15880D02*
Y16000D01*
X40470Y14060D02*
X40590D01*
X40530Y14000D02*
Y14120D01*
X22380Y24350D02*
X22500D01*
X22440Y24290D02*
Y24410D01*
X22110Y24020D02*
X22230D01*
X22170Y23960D02*
Y24080D01*
X21650Y24340D02*
X21770D01*
X21710Y24280D02*
Y24400D01*
X11920Y20850D02*
X12040D01*
X11980Y20790D02*
Y20910D01*
X12290Y20240D02*
X12410D01*
X12350Y20180D02*
Y20300D01*
X13810Y21130D02*
X13930D01*
X13870Y21070D02*
Y21190D01*
X18350Y21750D02*
X18470D01*
X18410Y21690D02*
Y21810D01*
X17910Y23920D02*
X18030D01*
X17970Y23860D02*
Y23980D01*
X18380Y23920D02*
X18500D01*
X18440Y23860D02*
Y23980D01*
X18800Y22100D02*
X18920D01*
X18860Y22040D02*
Y22160D01*
X19340Y22100D02*
X19460D01*
X19400Y22040D02*
Y22160D01*
X19310Y21260D02*
X19430D01*
X19370Y21200D02*
Y21320D01*
X21270Y24460D02*
X21390D01*
X21330Y24400D02*
Y24520D01*
X20900Y24380D02*
X21020D01*
X20960Y24320D02*
Y24440D01*
X20910Y23120D02*
X21030D01*
X20970Y23060D02*
Y23180D01*
X20920Y22580D02*
X21040D01*
X20980Y22520D02*
Y22640D01*
X21590Y21950D02*
X21710D01*
X21650Y21890D02*
Y22010D01*
X21290Y22150D02*
X21410D01*
X21350Y22090D02*
Y22210D01*
X23248Y23088D02*
X23368D01*
X23308Y23028D02*
Y23148D01*
X20990Y22085D02*
X21110D01*
X21050Y22025D02*
Y22145D01*
X21990Y22150D02*
X22110D01*
X22050Y22090D02*
Y22210D01*
X22470Y22280D02*
X22590D01*
X22530Y22220D02*
Y22340D01*
X22710Y21910D02*
X22830D01*
X22770Y21850D02*
Y21970D01*
X22910Y23570D02*
X23030D01*
X22970Y23510D02*
Y23630D01*
X19760Y22090D02*
X19880D01*
X19820Y22030D02*
Y22150D01*
X25750Y21280D02*
X25870D01*
X25810Y21220D02*
Y21340D01*
X18600Y18940D02*
X18800D01*
X18700Y18840D02*
Y19040D01*
X23330Y16980D02*
X23610D01*
X23470Y16840D02*
Y17120D01*
X20390Y18040D02*
X20510D01*
X20450Y17980D02*
Y18100D01*
X13320Y20010D02*
X13440D01*
X13380Y19950D02*
Y20070D01*
X11110Y19690D02*
X11230D01*
X11170Y19630D02*
Y19750D01*
X10520Y19700D02*
X10640D01*
X10580Y19640D02*
Y19760D01*
X20250Y19560D02*
X20370D01*
X20310Y19500D02*
Y19620D01*
X19000Y19630D02*
X19120D01*
X19060Y19570D02*
Y19690D01*
X18790Y20070D02*
X18910D01*
X18850Y20010D02*
Y20130D01*
X18430Y20290D02*
X18550D01*
X18490Y20230D02*
Y20350D01*
X21380Y18960D02*
X21500D01*
X21440Y18900D02*
Y19020D01*
X35717Y17305D02*
X35837D01*
X35777Y17245D02*
Y17365D01*
X28590Y16240D02*
X28710D01*
X28650Y16180D02*
Y16300D01*
X9210Y13730D02*
X9330D01*
X9270Y13670D02*
Y13790D01*
X5810Y8000D02*
X5930D01*
X5870Y7940D02*
Y8060D01*
X11210Y7980D02*
X11330D01*
X11270Y7920D02*
Y8040D01*
X16650Y7970D02*
X16770D01*
X16710Y7910D02*
Y8030D01*
X22090Y7890D02*
X22210D01*
X22150Y7830D02*
Y7950D01*
X8180Y13790D02*
X8300D01*
X8240Y13730D02*
Y13850D01*
X30010Y13590D02*
X30130D01*
X30070Y13530D02*
Y13650D01*
X27540Y8070D02*
X27660D01*
X27600Y8010D02*
Y8130D01*
X32900Y8080D02*
X33020D01*
X32960Y8020D02*
Y8140D01*
X38330Y8080D02*
X38450D01*
X38390Y8020D02*
Y8140D01*
X43780Y8070D02*
X43900D01*
X43840Y8010D02*
Y8130D01*
X22940Y17730D02*
X23060D01*
X23000Y17670D02*
Y17790D01*
X35080Y20800D02*
X35200D01*
X35140Y20740D02*
Y20860D01*
X22750Y11250D02*
X22870D01*
X22810Y11190D02*
Y11310D01*
X26740Y16510D02*
X26860D01*
X26800Y16450D02*
Y16570D01*
X26350Y16720D02*
X26470D01*
X26410Y16660D02*
Y16780D01*
X14000Y15630D02*
X14120D01*
X14060Y15570D02*
Y15690D01*
X25170Y16350D02*
X25290D01*
X25230Y16290D02*
Y16410D01*
X24450Y16050D02*
X24570D01*
X24510Y15990D02*
Y16110D01*
X24110Y17080D02*
X24230D01*
X24170Y17020D02*
Y17140D01*
X20490Y20930D02*
X20610D01*
X20550Y20870D02*
Y20990D01*
X19860Y21100D02*
X19980D01*
X19920Y21040D02*
Y21160D01*
X27490Y16990D02*
X27610D01*
X27550Y16930D02*
Y17050D01*
X28283Y18737D02*
X28403D01*
X28343Y18677D02*
Y18797D01*
X28070Y16520D02*
X28190D01*
X28130Y16460D02*
Y16580D01*
X28440Y16850D02*
X28640D01*
X28540Y16750D02*
Y16950D01*
X28090Y19350D02*
X28210D01*
X28150Y19290D02*
Y19410D01*
X31087Y21029D02*
X31207D01*
X31147Y20969D02*
Y21089D01*
X24240Y21470D02*
X24360D01*
X24300Y21410D02*
Y21530D01*
X28050Y21070D02*
X28170D01*
X28110Y21010D02*
Y21130D01*
X23880Y19870D02*
X24000D01*
X23940Y19810D02*
Y19930D01*
X23090Y20910D02*
X23210D01*
X23150Y20850D02*
Y20970D01*
X23770Y20830D02*
X23890D01*
X23830Y20770D02*
Y20890D01*
X24369Y21049D02*
X24489D01*
X24429Y20989D02*
Y21109D01*
X23740Y19060D02*
X23860D01*
X23800Y19000D02*
Y19120D01*
X24456Y19924D02*
X24576D01*
X24516Y19864D02*
Y19984D01*
X24480Y20540D02*
X24600D01*
X24540Y20480D02*
Y20600D01*
X24180Y20644D02*
X24300D01*
X24240Y20584D02*
Y20704D01*
X23940Y20290D02*
X24060D01*
X24000Y20230D02*
Y20350D01*
X23480Y18890D02*
X23600D01*
X23540Y18830D02*
Y18950D01*
X23960Y19450D02*
X24080D01*
X24020Y19390D02*
Y19510D01*
X23498Y19582D02*
X23618D01*
X23558Y19522D02*
Y19642D01*
X23000Y20610D02*
X23120D01*
X23060Y20550D02*
Y20670D01*
X22970Y20100D02*
X23090D01*
X23030Y20040D02*
Y20160D01*
X21820Y20120D02*
X21940D01*
X21880Y20060D02*
Y20180D01*
X20760Y20600D02*
X20880D01*
X20820Y20540D02*
Y20660D01*
X21580Y20920D02*
X21700D01*
X21640Y20860D02*
Y20980D01*
X21963Y20537D02*
X22083D01*
X22023Y20477D02*
Y20597D01*
X22260Y20240D02*
X22380D01*
X22320Y20180D02*
Y20300D01*
X21330Y16860D02*
X21450D01*
X21390Y16800D02*
Y16920D01*
X21280Y18300D02*
X21400D01*
X21340Y18240D02*
Y18360D01*
X21390Y17770D02*
X21510D01*
X21450Y17710D02*
Y17830D01*
Y19840D02*
X21570D01*
X21510Y19780D02*
Y19900D01*
X23630Y15040D02*
X23750D01*
X23690Y14980D02*
Y15100D01*
X27430Y20500D02*
X27550D01*
X27490Y20440D02*
Y20560D01*
X27570Y20080D02*
X27690D01*
X27630Y20020D02*
Y20140D01*
X26970Y20570D02*
X27090D01*
X27030Y20510D02*
Y20630D01*
X5724Y10548D02*
X5844D01*
X5784Y10489D02*
Y10609D01*
X5724Y10174D02*
X5844D01*
X5784Y10115D02*
Y10235D01*
X5369Y10548D02*
X5489D01*
X5429Y10489D02*
Y10609D01*
X5369Y10174D02*
X5489D01*
X5429Y10115D02*
Y10235D01*
X27375Y10535D02*
X27495D01*
X27435Y10475D02*
Y10595D01*
X27375Y10161D02*
X27495D01*
X27435Y10101D02*
Y10221D01*
X27021Y10535D02*
X27141D01*
X27081Y10475D02*
Y10595D01*
X27021Y10161D02*
X27141D01*
X27081Y10101D02*
Y10221D01*
X38224Y10550D02*
X38344D01*
X38284Y10490D02*
Y10610D01*
X38224Y10176D02*
X38344D01*
X38284Y10116D02*
Y10236D01*
X37870Y10550D02*
X37990D01*
X37930Y10490D02*
Y10610D01*
X37870Y10176D02*
X37990D01*
X37930Y10116D02*
Y10236D01*
X32802Y10539D02*
X32922D01*
X32862Y10479D02*
Y10599D01*
X32802Y10165D02*
X32922D01*
X32862Y10105D02*
Y10225D01*
X32447Y10539D02*
X32567D01*
X32507Y10479D02*
Y10599D01*
X32447Y10165D02*
X32567D01*
X32507Y10105D02*
Y10225D01*
X43685Y10579D02*
X43805D01*
X43745Y10519D02*
Y10639D01*
X43685Y10205D02*
X43805D01*
X43745Y10145D02*
Y10265D01*
X43330Y10579D02*
X43450D01*
X43390Y10519D02*
Y10639D01*
X43330Y10205D02*
X43450D01*
X43390Y10145D02*
Y10265D01*
X16472Y10548D02*
X16592D01*
X16532Y10489D02*
Y10609D01*
X16472Y10174D02*
X16592D01*
X16532Y10115D02*
Y10235D01*
X16117Y10548D02*
X16237D01*
X16177Y10489D02*
Y10609D01*
X16117Y10174D02*
X16237D01*
X16177Y10115D02*
Y10235D01*
X11117Y10548D02*
X11237D01*
X11177Y10489D02*
Y10609D01*
X11117Y10174D02*
X11237D01*
X11177Y10115D02*
Y10235D01*
X10763Y10548D02*
X10883D01*
X10823Y10489D02*
Y10609D01*
X10763Y10174D02*
X10883D01*
X10823Y10115D02*
Y10235D01*
X21983Y10548D02*
X22103D01*
X22043Y10489D02*
Y10609D01*
X21983Y10174D02*
X22103D01*
X22043Y10115D02*
Y10235D01*
X21629Y10548D02*
X21749D01*
X21689Y10489D02*
Y10609D01*
X21629Y10174D02*
X21749D01*
X21689Y10115D02*
Y10235D01*
X29860Y19670D02*
X29980D01*
X29920Y19610D02*
Y19730D01*
X24550Y25050D02*
X24670D01*
X24610Y24990D02*
Y25110D01*
X25580Y24980D02*
X25780D01*
X25680Y24880D02*
Y25080D01*
X25010Y25440D02*
X25210D01*
X25110Y25340D02*
Y25540D01*
X11060Y23240D02*
X11180D01*
X11120Y23180D02*
Y23300D01*
M02*
