%FSLAX24Y24*%
%MOIN*%
G70*
G01*
G75*
G04 Layer_Color=2752767*
%ADD10R,0.0433X0.0394*%
%ADD11R,0.0591X0.1102*%
%ADD12R,0.0394X0.0433*%
%ADD13R,0.0709X0.0256*%
%ADD14R,0.0256X0.0709*%
%ADD15R,0.0256X0.1024*%
%ADD16R,0.1024X0.0256*%
%ADD17R,0.0276X0.0354*%
%ADD18C,0.0394*%
%ADD19R,0.0709X0.0630*%
%ADD20R,0.0354X0.0276*%
%ADD21O,0.0571X0.0098*%
%ADD22R,0.0236X0.0748*%
%ADD23R,0.1220X0.0748*%
%ADD24R,0.0276X0.0394*%
%ADD25R,0.0256X0.0157*%
%ADD26R,0.0591X0.0512*%
%ADD27R,0.0394X0.0276*%
%ADD28R,0.0276X0.0709*%
%ADD29O,0.0748X0.0236*%
%ADD30R,0.0276X0.0177*%
%ADD31R,0.0650X0.0965*%
%ADD32R,0.0177X0.0207*%
%ADD33O,0.0335X0.0118*%
%ADD34O,0.0118X0.0335*%
%ADD35R,0.0984X0.0984*%
%ADD36O,0.0098X0.0256*%
%ADD37O,0.0256X0.0098*%
%ADD38R,0.0276X0.0118*%
%ADD39R,0.0681X0.0728*%
%ADD40O,0.0402X0.0161*%
%ADD41R,0.1102X0.1102*%
%ADD42R,0.0118X0.0118*%
%ADD43R,0.0118X0.0118*%
%ADD44R,0.0866X0.1102*%
%ADD45R,0.1102X0.1102*%
%ADD46R,0.0433X0.0472*%
%ADD47C,0.0080*%
%ADD48C,0.0120*%
%ADD49C,0.0200*%
%ADD50C,0.0250*%
%ADD51C,0.0350*%
%ADD52C,0.0060*%
%ADD53C,0.0500*%
%ADD54C,0.0100*%
%ADD55C,0.0300*%
%ADD56C,0.0705*%
%ADD57C,0.0500*%
%ADD58C,0.1969*%
%ADD59C,0.1299*%
%ADD60C,0.1496*%
%ADD61R,0.0630X0.0630*%
%ADD62C,0.0630*%
%ADD63C,0.0945*%
%ADD64C,0.0200*%
%ADD65C,0.0240*%
%ADD66C,0.0400*%
%ADD67C,0.0260*%
%ADD68C,0.0160*%
%ADD69C,0.0400*%
%ADD70C,0.0750*%
%ADD71C,0.1680*%
%ADD72C,0.0770*%
%ADD73C,0.1581*%
%ADD74C,0.1109*%
%ADD75C,0.1306*%
%ADD76C,0.0762*%
%ADD77C,0.0951*%
%ADD78C,0.1069*%
%ADD79C,0.0520*%
%ADD80C,0.0600*%
%ADD81C,0.0680*%
%ADD82C,0.1778*%
%ADD83C,0.0530*%
%ADD84R,0.2205X0.0827*%
%ADD85R,0.0118X0.0276*%
%ADD86O,0.0138X0.0551*%
%ADD87C,0.0157*%
%ADD88C,0.0098*%
%ADD89C,0.0039*%
%ADD90C,0.0079*%
%ADD91C,0.0020*%
%ADD92C,0.0063*%
%ADD93C,0.0032*%
%ADD94C,0.0059*%
%ADD95R,0.0513X0.0474*%
%ADD96R,0.0671X0.1182*%
%ADD97R,0.0474X0.0513*%
%ADD98R,0.0789X0.0336*%
%ADD99R,0.0336X0.0789*%
%ADD100R,0.0336X0.1104*%
%ADD101R,0.1104X0.0336*%
%ADD102R,0.0356X0.0434*%
%ADD103C,0.0474*%
%ADD104R,0.0789X0.0710*%
%ADD105R,0.0434X0.0356*%
%ADD106O,0.0651X0.0178*%
%ADD107R,0.0316X0.0828*%
%ADD108R,0.1300X0.0828*%
%ADD109R,0.0356X0.0474*%
%ADD110R,0.0336X0.0237*%
%ADD111R,0.0671X0.0592*%
%ADD112R,0.0474X0.0356*%
%ADD113R,0.0356X0.0789*%
%ADD114O,0.0828X0.0316*%
%ADD115R,0.0356X0.0257*%
%ADD116R,0.0730X0.1045*%
%ADD117R,0.0257X0.0287*%
%ADD118O,0.0415X0.0198*%
%ADD119O,0.0198X0.0415*%
%ADD120R,0.1064X0.1064*%
%ADD121O,0.0178X0.0336*%
%ADD122O,0.0336X0.0178*%
%ADD123R,0.0356X0.0198*%
%ADD124R,0.0761X0.0808*%
%ADD125O,0.0482X0.0241*%
%ADD126R,0.1182X0.1182*%
%ADD127R,0.0198X0.0198*%
%ADD128R,0.0198X0.0198*%
%ADD129R,0.0946X0.1182*%
%ADD130R,0.1182X0.1182*%
%ADD131R,0.0513X0.0552*%
%ADD132C,0.0785*%
%ADD133C,0.0080*%
%ADD134C,0.0580*%
%ADD135C,0.2049*%
%ADD136C,0.1379*%
%ADD137C,0.1576*%
%ADD138R,0.0710X0.0710*%
%ADD139C,0.0710*%
%ADD140C,0.1025*%
%ADD141C,0.0320*%
%ADD142C,0.0480*%
%ADD143R,0.2285X0.0907*%
%ADD144R,0.0198X0.0356*%
%ADD145O,0.0218X0.0631*%
%ADD146C,0.0340*%
%ADD147C,0.0236*%
%ADD148C,0.0118*%
%ADD149C,0.0067*%
%ADD150C,0.0040*%
D91*
X21899Y3656D02*
Y4056D01*
X22299D01*
Y3656D01*
X21899D01*
X20899D02*
Y4056D01*
X21299D01*
Y3656D01*
X20899D01*
X22399Y4656D02*
Y5056D01*
X22799D01*
Y4656D01*
X22399D01*
X21399D02*
Y5056D01*
X21799D01*
Y4656D01*
X21399D01*
X16466Y3656D02*
Y4056D01*
X16866D01*
Y3656D01*
X16466D01*
X15466D02*
Y4056D01*
X15866D01*
Y3656D01*
X15466D01*
X16966Y4656D02*
Y5056D01*
X17366D01*
Y4656D01*
X16966D01*
X15966D02*
Y5056D01*
X16366D01*
Y4656D01*
X15966D01*
X11032Y3656D02*
Y4056D01*
X11432D01*
Y3656D01*
X11032D01*
X10032D02*
Y4056D01*
X10432D01*
Y3656D01*
X10032D01*
X11532Y4656D02*
Y5056D01*
X11932D01*
Y4656D01*
X11532D01*
X10532D02*
Y5056D01*
X10932D01*
Y4656D01*
X10532D01*
X27332Y3656D02*
Y4056D01*
X27732D01*
Y3656D01*
X27332D01*
X26332D02*
Y4056D01*
X26732D01*
Y3656D01*
X26332D01*
X27832Y4656D02*
Y5056D01*
X28232D01*
Y4656D01*
X27832D01*
X26832D02*
Y5056D01*
X27232D01*
Y4656D01*
X26832D01*
X5599Y3656D02*
Y4056D01*
X5999D01*
Y3656D01*
X5599D01*
X4599D02*
Y4056D01*
X4999D01*
Y3656D01*
X4599D01*
X6099Y4656D02*
Y5056D01*
X6499D01*
Y4656D01*
X6099D01*
X5099D02*
Y5056D01*
X5499D01*
Y4656D01*
X5099D01*
X2340Y14144D02*
X2140Y14544D01*
X2540D01*
X2340Y14144D01*
X1340D02*
X1140Y14544D01*
X1540D01*
X1340Y14144D01*
X2340Y15144D02*
X2140Y15544D01*
X2540D01*
X2340Y15144D01*
X1340D02*
X1140Y15544D01*
X1540D01*
X1340Y15144D01*
X2340Y16144D02*
X2140Y16544D01*
X2540D01*
X2340Y16144D01*
X1340D02*
X1140Y16544D01*
X1540D01*
X1340Y16144D01*
X2340Y17144D02*
X2140Y17544D01*
X2540D01*
X2340Y17144D01*
X1340D02*
X1140Y17544D01*
X1540D01*
X1340Y17144D01*
X2340Y18144D02*
X2140Y18544D01*
X2540D01*
X2340Y18144D01*
X1340D02*
X1140Y18544D01*
X1540D01*
X1340Y18144D01*
X2340Y19144D02*
X2140Y19544D01*
X2540D01*
X2340Y19144D01*
X1340D02*
X1140Y19544D01*
X1540D01*
X1340Y19144D01*
X2340Y20144D02*
X2140Y20544D01*
X2540D01*
X2340Y20144D01*
X1340D02*
X1140Y20544D01*
X1540D01*
X1340Y20144D01*
X2340Y21144D02*
X2140Y21544D01*
X2540D01*
X2340Y21144D01*
X1340D02*
X1140Y21544D01*
X1540D01*
X1340Y21144D01*
X2340Y22144D02*
X2140Y22544D01*
X2540D01*
X2340Y22144D01*
X1340D02*
X1140Y22544D01*
X1540D01*
X1340Y22144D01*
X2340Y23144D02*
X2140Y23544D01*
X2540D01*
X2340Y23144D01*
X1340D02*
X1140Y23544D01*
X1540D01*
X1340Y23144D01*
X4890Y17040D02*
X4690Y17440D01*
X5090D01*
X4890Y17040D01*
X5890D02*
X5690Y17440D01*
X6090D01*
X5890Y17040D01*
X4890Y18040D02*
X4690Y18440D01*
X5090D01*
X4890Y18040D01*
X5890D02*
X5690Y18440D01*
X6090D01*
X5890Y18040D01*
X4890Y19040D02*
X4690Y19440D01*
X5090D01*
X4890Y19040D01*
X5890D02*
X5690Y19440D01*
X6090D01*
X5890Y19040D01*
X4890Y20040D02*
X4690Y20440D01*
X5090D01*
X4890Y20040D01*
X5890D02*
X5690Y20440D01*
X6090D01*
X5890Y20040D01*
X4890Y21040D02*
X4690Y21440D01*
X5090D01*
X4890Y21040D01*
X5890D02*
X5690Y21440D01*
X6090D01*
X5890Y21040D01*
X4890Y22040D02*
X4690Y22440D01*
X5090D01*
X4890Y22040D01*
X5890D02*
X5690Y22440D01*
X6090D01*
X5890Y22040D01*
X4890Y23040D02*
X4690Y23440D01*
X5090D01*
X4890Y23040D01*
X5890D02*
X5690Y23440D01*
X6090D01*
X5890Y23040D01*
X4890Y24040D02*
X4690Y24440D01*
X5090D01*
X4890Y24040D01*
X5890D02*
X5690Y24440D01*
X6090D01*
X5890Y24040D01*
X4890Y25040D02*
X4690Y25440D01*
X5090D01*
X4890Y25040D01*
X5890D02*
X5690Y25440D01*
X6090D01*
X5890Y25040D01*
X4890Y26040D02*
X4690Y26440D01*
X5090D01*
X4890Y26040D01*
X5890D02*
X5690Y26440D01*
X6090D01*
X5890Y26040D01*
X47770Y27100D02*
X47870Y27200D01*
X47970D01*
X47870Y27300D01*
X47970Y27400D01*
X47870D01*
X47770Y27500D01*
X47670Y27400D01*
X47570D01*
X47670Y27300D01*
X47570Y27200D01*
X47670D01*
X47770Y27100D01*
X1480D02*
X1580Y27200D01*
X1680D01*
X1580Y27300D01*
X1680Y27400D01*
X1580D01*
X1480Y27500D01*
X1380Y27400D01*
X1280D01*
X1380Y27300D01*
X1280Y27200D01*
X1380D01*
X1480Y27100D01*
X47780Y1270D02*
X47880Y1370D01*
X47980D01*
X47880Y1470D01*
X47980Y1570D01*
X47880D01*
X47780Y1670D01*
X47680Y1570D01*
X47580D01*
X47680Y1470D01*
X47580Y1370D01*
X47680D01*
X47780Y1270D01*
X1470Y1280D02*
X1570Y1380D01*
X1670D01*
X1570Y1480D01*
X1670Y1580D01*
X1570D01*
X1470Y1680D01*
X1370Y1580D01*
X1270D01*
X1370Y1480D01*
X1270Y1380D01*
X1370D01*
X1470Y1280D01*
X48182Y23695D02*
X48282Y23895D01*
X48182Y24095D01*
X48382Y23995D01*
X48582Y24095D01*
X48482Y23895D01*
X48582Y23695D01*
X48382Y23795D01*
X48182Y23695D01*
X45408Y24622D02*
Y24522D01*
X45608D01*
Y24622D01*
X45708D01*
Y24822D01*
X45608D01*
Y24922D01*
X45408D01*
Y24822D01*
X45308D01*
Y24622D01*
X45408D01*
Y22968D02*
Y22868D01*
X45608D01*
Y22968D01*
X45708D01*
Y23168D01*
X45608D01*
Y23268D01*
X45408D01*
Y23168D01*
X45308D01*
Y22968D01*
X45408D01*
X43243Y24622D02*
Y24522D01*
X43443D01*
Y24622D01*
X43543D01*
Y24822D01*
X43443D01*
Y24922D01*
X43243D01*
Y24822D01*
X43143D01*
Y24622D01*
X43243D01*
Y22968D02*
Y22868D01*
X43443D01*
Y22968D01*
X43543D01*
Y23168D01*
X43443D01*
Y23268D01*
X43243D01*
Y23168D01*
X43143D01*
Y22968D01*
X43243D01*
X47595Y21026D02*
X47695D01*
X47795Y21126D01*
X47895Y21026D01*
X47995D01*
Y21126D01*
X47895Y21226D01*
X47995Y21326D01*
Y21426D01*
X47895D01*
X47795Y21326D01*
X47695Y21426D01*
X47595D01*
Y21326D01*
X47695Y21226D01*
X47595Y21126D01*
Y21026D01*
X45741Y19348D02*
X45941Y19548D01*
X46141Y19348D01*
X45941Y19148D01*
X45741Y19348D01*
Y18363D02*
X45941Y18563D01*
X46141Y18363D01*
X45941Y18163D01*
X45741Y18363D01*
X46529Y19348D02*
X46729Y19548D01*
X46929Y19348D01*
X46729Y19148D01*
X46529Y19348D01*
Y18363D02*
X46729Y18563D01*
X46929Y18363D01*
X46729Y18163D01*
X46529Y18363D01*
X47595Y16286D02*
X47695D01*
X47795Y16386D01*
X47895Y16286D01*
X47995D01*
Y16386D01*
X47895Y16486D01*
X47995Y16586D01*
Y16686D01*
X47895D01*
X47795Y16586D01*
X47695Y16686D01*
X47595D01*
Y16586D01*
X47695Y16486D01*
X47595Y16386D01*
Y16286D01*
X34609Y26861D02*
Y27261D01*
X35009D01*
Y26861D01*
X34609D01*
X34689Y26941D02*
Y27181D01*
X34929D01*
Y26941D01*
X34689D01*
X34609Y23111D02*
Y23511D01*
X35009D01*
Y23111D01*
X34609D01*
X34689Y23191D02*
Y23431D01*
X34929D01*
Y23191D01*
X34689D01*
X40859Y26861D02*
Y27261D01*
X41259D01*
Y26861D01*
X40859D01*
X40939Y26941D02*
Y27181D01*
X41179D01*
Y26941D01*
X40939D01*
X40859Y25611D02*
Y26011D01*
X41259D01*
Y25611D01*
X40859D01*
X40939Y25691D02*
Y25931D01*
X41179D01*
Y25691D01*
X40939D01*
X40859Y23111D02*
Y23511D01*
X41259D01*
Y23111D01*
X40859D01*
X40939Y23191D02*
Y23431D01*
X41179D01*
Y23191D01*
X40939D01*
X48106Y12671D02*
X47906Y13071D01*
X48306D01*
X48106Y12671D01*
Y12751D02*
X47986Y12991D01*
X48226D01*
X48106Y12751D01*
X45351Y12671D02*
X45151Y13071D01*
X45551D01*
X45351Y12671D01*
Y12751D02*
X45231Y12991D01*
X45471D01*
X45351Y12751D01*
X37698Y4656D02*
Y5056D01*
X38098D01*
Y4656D01*
X37698D01*
X38698D02*
Y5056D01*
X39098D01*
Y4656D01*
X38698D01*
X37198Y3656D02*
Y4056D01*
X37598D01*
Y3656D01*
X37198D01*
X38198D02*
Y4056D01*
X38598D01*
Y3656D01*
X38198D01*
X32265Y4656D02*
Y5056D01*
X32665D01*
Y4656D01*
X32265D01*
X33265D02*
Y5056D01*
X33665D01*
Y4656D01*
X33265D01*
X31765Y3656D02*
Y4056D01*
X32165D01*
Y3656D01*
X31765D01*
X32765D02*
Y4056D01*
X33165D01*
Y3656D01*
X32765D01*
X43140Y4650D02*
Y5050D01*
X43540D01*
Y4650D01*
X43140D01*
X44140D02*
Y5050D01*
X44540D01*
Y4650D01*
X44140D01*
X42640Y3650D02*
Y4050D01*
X43040D01*
Y3650D01*
X42640D01*
X43640D02*
Y4050D01*
X44040D01*
Y3650D01*
X43640D01*
X20390Y18690D02*
X20490Y18790D01*
X20590D01*
X20490Y18890D01*
X20590Y18990D01*
X20490D01*
X20390Y19090D01*
X20290Y18990D01*
X20190D01*
X20290Y18890D01*
X20190Y18790D01*
X20290D01*
X20390Y18690D01*
Y18770D02*
X20450Y18830D01*
X20510D01*
X20450Y18890D01*
X20510Y18950D01*
X20450D01*
X20390Y19010D01*
X20330Y18950D01*
X20270D01*
X20330Y18890D01*
X20270Y18830D01*
X20330D01*
X20390Y18770D01*
X36780Y22313D02*
X36880Y22413D01*
X36980D01*
X36880Y22513D01*
X36980Y22613D01*
X36880D01*
X36780Y22713D01*
X36680Y22613D01*
X36580D01*
X36680Y22513D01*
X36580Y22413D01*
X36680D01*
X36780Y22313D01*
Y22393D02*
X36840Y22453D01*
X36900D01*
X36840Y22513D01*
X36900Y22573D01*
X36840D01*
X36780Y22633D01*
X36720Y22573D01*
X36660D01*
X36720Y22513D01*
X36660Y22453D01*
X36720D01*
X36780Y22393D01*
X40890Y16370D02*
X40990Y16470D01*
X41090D01*
X40990Y16570D01*
X41090Y16670D01*
X40990D01*
X40890Y16770D01*
X40790Y16670D01*
X40690D01*
X40790Y16570D01*
X40690Y16470D01*
X40790D01*
X40890Y16370D01*
Y16450D02*
X40950Y16510D01*
X41010D01*
X40950Y16570D01*
X41010Y16630D01*
X40950D01*
X40890Y16690D01*
X40830Y16630D01*
X40770D01*
X40830Y16570D01*
X40770Y16510D01*
X40830D01*
X40890Y16450D01*
X40900Y15080D02*
X41000Y15180D01*
X41100D01*
X41000Y15280D01*
X41100Y15380D01*
X41000D01*
X40900Y15480D01*
X40800Y15380D01*
X40700D01*
X40800Y15280D01*
X40700Y15180D01*
X40800D01*
X40900Y15080D01*
Y15160D02*
X40960Y15220D01*
X41020D01*
X40960Y15280D01*
X41020Y15340D01*
X40960D01*
X40900Y15400D01*
X40840Y15340D01*
X40780D01*
X40840Y15280D01*
X40780Y15220D01*
X40840D01*
X40900Y15160D01*
X30320Y16730D02*
X30420Y16830D01*
X30520D01*
X30420Y16930D01*
X30520Y17030D01*
X30420D01*
X30320Y17130D01*
X30220Y17030D01*
X30120D01*
X30220Y16930D01*
X30120Y16830D01*
X30220D01*
X30320Y16730D01*
Y16810D02*
X30380Y16870D01*
X30440D01*
X30380Y16930D01*
X30440Y16990D01*
X30380D01*
X30320Y17050D01*
X30260Y16990D01*
X30200D01*
X30260Y16930D01*
X30200Y16870D01*
X30260D01*
X30320Y16810D01*
X13640Y5560D02*
X13740Y5760D01*
X13640Y5960D01*
X13840Y5860D01*
X14040Y5960D01*
X13940Y5760D01*
X14040Y5560D01*
X13840Y5660D01*
X13640Y5560D01*
X13720Y5640D02*
X13780Y5760D01*
X13720Y5880D01*
X13840Y5820D01*
X13960Y5880D01*
X13900Y5760D01*
X13960Y5640D01*
X13840Y5700D01*
X13720Y5640D01*
X24120Y8580D02*
X24220Y8780D01*
X24120Y8980D01*
X24320Y8880D01*
X24520Y8980D01*
X24420Y8780D01*
X24520Y8580D01*
X24320Y8680D01*
X24120Y8580D01*
X24200Y8660D02*
X24260Y8780D01*
X24200Y8900D01*
X24320Y8840D01*
X24440Y8900D01*
X24380Y8780D01*
X24440Y8660D01*
X24320Y8720D01*
X24200Y8660D01*
X29480Y8560D02*
X29580Y8760D01*
X29480Y8960D01*
X29680Y8860D01*
X29880Y8960D01*
X29780Y8760D01*
X29880Y8560D01*
X29680Y8660D01*
X29480Y8560D01*
X29560Y8640D02*
X29620Y8760D01*
X29560Y8880D01*
X29680Y8820D01*
X29800Y8880D01*
X29740Y8760D01*
X29800Y8640D01*
X29680Y8700D01*
X29560Y8640D01*
X24910Y6660D02*
X25010Y6860D01*
X24910Y7060D01*
X25110Y6960D01*
X25310Y7060D01*
X25210Y6860D01*
X25310Y6660D01*
X25110Y6760D01*
X24910Y6660D01*
X24990Y6740D02*
X25050Y6860D01*
X24990Y6980D01*
X25110Y6920D01*
X25230Y6980D01*
X25170Y6860D01*
X25230Y6740D01*
X25110Y6800D01*
X24990Y6740D01*
X30300Y6630D02*
X30400Y6830D01*
X30300Y7030D01*
X30500Y6930D01*
X30700Y7030D01*
X30600Y6830D01*
X30700Y6630D01*
X30500Y6730D01*
X30300Y6630D01*
X30380Y6710D02*
X30440Y6830D01*
X30380Y6950D01*
X30500Y6890D01*
X30620Y6950D01*
X30560Y6830D01*
X30620Y6710D01*
X30500Y6770D01*
X30380Y6710D01*
X41300Y6650D02*
X41400Y6850D01*
X41300Y7050D01*
X41500Y6950D01*
X41700Y7050D01*
X41600Y6850D01*
X41700Y6650D01*
X41500Y6750D01*
X41300Y6650D01*
X41380Y6730D02*
X41440Y6850D01*
X41380Y6970D01*
X41500Y6910D01*
X41620Y6970D01*
X41560Y6850D01*
X41620Y6730D01*
X41500Y6790D01*
X41380Y6730D01*
X35850Y6590D02*
X35950Y6790D01*
X35850Y6990D01*
X36050Y6890D01*
X36250Y6990D01*
X36150Y6790D01*
X36250Y6590D01*
X36050Y6690D01*
X35850Y6590D01*
X35930Y6670D02*
X35990Y6790D01*
X35930Y6910D01*
X36050Y6850D01*
X36170Y6910D01*
X36110Y6790D01*
X36170Y6670D01*
X36050Y6730D01*
X35930Y6670D01*
X40500Y8530D02*
X40600Y8730D01*
X40500Y8930D01*
X40700Y8830D01*
X40900Y8930D01*
X40800Y8730D01*
X40900Y8530D01*
X40700Y8630D01*
X40500Y8530D01*
X40580Y8610D02*
X40640Y8730D01*
X40580Y8850D01*
X40700Y8790D01*
X40820Y8850D01*
X40760Y8730D01*
X40820Y8610D01*
X40700Y8670D01*
X40580Y8610D01*
X40750Y5540D02*
X40850Y5740D01*
X40750Y5940D01*
X40950Y5840D01*
X41150Y5940D01*
X41050Y5740D01*
X41150Y5540D01*
X40950Y5640D01*
X40750Y5540D01*
X40830Y5620D02*
X40890Y5740D01*
X40830Y5860D01*
X40950Y5800D01*
X41070Y5860D01*
X41010Y5740D01*
X41070Y5620D01*
X40950Y5680D01*
X40830Y5620D01*
X35040Y8530D02*
X35140Y8730D01*
X35040Y8930D01*
X35240Y8830D01*
X35440Y8930D01*
X35340Y8730D01*
X35440Y8530D01*
X35240Y8630D01*
X35040Y8530D01*
X35120Y8610D02*
X35180Y8730D01*
X35120Y8850D01*
X35240Y8790D01*
X35360Y8850D01*
X35300Y8730D01*
X35360Y8610D01*
X35240Y8670D01*
X35120Y8610D01*
X29950Y5550D02*
X30050Y5750D01*
X29950Y5950D01*
X30150Y5850D01*
X30350Y5950D01*
X30250Y5750D01*
X30350Y5550D01*
X30150Y5650D01*
X29950Y5550D01*
X30030Y5630D02*
X30090Y5750D01*
X30030Y5870D01*
X30150Y5810D01*
X30270Y5870D01*
X30210Y5750D01*
X30270Y5630D01*
X30150Y5690D01*
X30030Y5630D01*
X35320Y5550D02*
X35420Y5750D01*
X35320Y5950D01*
X35520Y5850D01*
X35720Y5950D01*
X35620Y5750D01*
X35720Y5550D01*
X35520Y5650D01*
X35320Y5550D01*
X35400Y5630D02*
X35460Y5750D01*
X35400Y5870D01*
X35520Y5810D01*
X35640Y5870D01*
X35580Y5750D01*
X35640Y5630D01*
X35520Y5690D01*
X35400Y5630D01*
X18750Y8570D02*
X18850Y8770D01*
X18750Y8970D01*
X18950Y8870D01*
X19150Y8970D01*
X19050Y8770D01*
X19150Y8570D01*
X18950Y8670D01*
X18750Y8570D01*
X18830Y8650D02*
X18890Y8770D01*
X18830Y8890D01*
X18950Y8830D01*
X19070Y8890D01*
X19010Y8770D01*
X19070Y8650D01*
X18950Y8710D01*
X18830Y8650D01*
X22070Y12100D02*
X22170Y12300D01*
X22070Y12500D01*
X22270Y12400D01*
X22470Y12500D01*
X22370Y12300D01*
X22470Y12100D01*
X22270Y12200D01*
X22070Y12100D01*
X22150Y12180D02*
X22210Y12300D01*
X22150Y12420D01*
X22270Y12360D01*
X22390Y12420D01*
X22330Y12300D01*
X22390Y12180D01*
X22270Y12240D01*
X22150Y12180D01*
X19060Y5560D02*
X19160Y5760D01*
X19060Y5960D01*
X19260Y5860D01*
X19460Y5960D01*
X19360Y5760D01*
X19460Y5560D01*
X19260Y5660D01*
X19060Y5560D01*
X19140Y5640D02*
X19200Y5760D01*
X19140Y5880D01*
X19260Y5820D01*
X19380Y5880D01*
X19320Y5760D01*
X19380Y5640D01*
X19260Y5700D01*
X19140Y5640D01*
X19570Y6690D02*
X19670Y6890D01*
X19570Y7090D01*
X19770Y6990D01*
X19970Y7090D01*
X19870Y6890D01*
X19970Y6690D01*
X19770Y6790D01*
X19570Y6690D01*
X19650Y6770D02*
X19710Y6890D01*
X19650Y7010D01*
X19770Y6950D01*
X19890Y7010D01*
X19830Y6890D01*
X19890Y6770D01*
X19770Y6830D01*
X19650Y6770D01*
X24530Y5560D02*
X24630Y5760D01*
X24530Y5960D01*
X24730Y5860D01*
X24930Y5960D01*
X24830Y5760D01*
X24930Y5560D01*
X24730Y5660D01*
X24530Y5560D01*
X24610Y5640D02*
X24670Y5760D01*
X24610Y5880D01*
X24730Y5820D01*
X24850Y5880D01*
X24790Y5760D01*
X24850Y5640D01*
X24730Y5700D01*
X24610Y5640D01*
X14090Y6720D02*
X14190Y6920D01*
X14090Y7120D01*
X14290Y7020D01*
X14490Y7120D01*
X14390Y6920D01*
X14490Y6720D01*
X14290Y6820D01*
X14090Y6720D01*
X14170Y6800D02*
X14230Y6920D01*
X14170Y7040D01*
X14290Y6980D01*
X14410Y7040D01*
X14350Y6920D01*
X14410Y6800D01*
X14290Y6860D01*
X14170Y6800D01*
X8680Y6700D02*
X8780Y6900D01*
X8680Y7100D01*
X8880Y7000D01*
X9080Y7100D01*
X8980Y6900D01*
X9080Y6700D01*
X8880Y6800D01*
X8680Y6700D01*
X8760Y6780D02*
X8820Y6900D01*
X8760Y7020D01*
X8880Y6960D01*
X9000Y7020D01*
X8940Y6900D01*
X9000Y6780D01*
X8880Y6840D01*
X8760Y6780D01*
X13290Y8530D02*
X13390Y8730D01*
X13290Y8930D01*
X13490Y8830D01*
X13690Y8930D01*
X13590Y8730D01*
X13690Y8530D01*
X13490Y8630D01*
X13290Y8530D01*
X13370Y8610D02*
X13430Y8730D01*
X13370Y8850D01*
X13490Y8790D01*
X13610Y8850D01*
X13550Y8730D01*
X13610Y8610D01*
X13490Y8670D01*
X13370Y8610D01*
X7860Y8570D02*
X7960Y8770D01*
X7860Y8970D01*
X8060Y8870D01*
X8260Y8970D01*
X8160Y8770D01*
X8260Y8570D01*
X8060Y8670D01*
X7860Y8570D01*
X7940Y8650D02*
X8000Y8770D01*
X7940Y8890D01*
X8060Y8830D01*
X8180Y8890D01*
X8120Y8770D01*
X8180Y8650D01*
X8060Y8710D01*
X7940Y8650D01*
X8250Y5550D02*
X8350Y5750D01*
X8250Y5950D01*
X8450Y5850D01*
X8650Y5950D01*
X8550Y5750D01*
X8650Y5550D01*
X8450Y5650D01*
X8250Y5550D01*
X8330Y5630D02*
X8390Y5750D01*
X8330Y5870D01*
X8450Y5810D01*
X8570Y5870D01*
X8510Y5750D01*
X8570Y5630D01*
X8450Y5690D01*
X8330Y5630D01*
X3000Y5560D02*
X3100Y5760D01*
X3000Y5960D01*
X3200Y5860D01*
X3400Y5960D01*
X3300Y5760D01*
X3400Y5560D01*
X3200Y5660D01*
X3000Y5560D01*
X3080Y5640D02*
X3140Y5760D01*
X3080Y5880D01*
X3200Y5820D01*
X3320Y5880D01*
X3260Y5760D01*
X3320Y5640D01*
X3200Y5700D01*
X3080Y5640D01*
X2520Y6970D02*
X2620Y7170D01*
X2520Y7370D01*
X2720Y7270D01*
X2920Y7370D01*
X2820Y7170D01*
X2920Y6970D01*
X2720Y7070D01*
X2520Y6970D01*
X2600Y7050D02*
X2660Y7170D01*
X2600Y7290D01*
X2720Y7230D01*
X2840Y7290D01*
X2780Y7170D01*
X2840Y7050D01*
X2720Y7110D01*
X2600Y7050D01*
X3290Y6750D02*
X3390Y6950D01*
X3290Y7150D01*
X3490Y7050D01*
X3690Y7150D01*
X3590Y6950D01*
X3690Y6750D01*
X3490Y6850D01*
X3290Y6750D01*
X3370Y6830D02*
X3430Y6950D01*
X3370Y7070D01*
X3490Y7010D01*
X3610Y7070D01*
X3550Y6950D01*
X3610Y6830D01*
X3490Y6890D01*
X3370Y6830D01*
X30444Y22466D02*
Y22366D01*
X30644D01*
Y22466D01*
X30744D01*
Y22666D01*
X30644D01*
Y22766D01*
X30444D01*
Y22666D01*
X30344D01*
Y22466D01*
X30444D01*
X30484Y22506D02*
Y22446D01*
X30604D01*
Y22506D01*
X30664D01*
Y22626D01*
X30604D01*
Y22686D01*
X30484D01*
Y22626D01*
X30424D01*
Y22506D01*
X30484D01*
X30916Y22466D02*
Y22366D01*
X31116D01*
Y22466D01*
X31216D01*
Y22666D01*
X31116D01*
Y22766D01*
X30916D01*
Y22666D01*
X30816D01*
Y22466D01*
X30916D01*
X30956Y22506D02*
Y22446D01*
X31076D01*
Y22506D01*
X31136D01*
Y22626D01*
X31076D01*
Y22686D01*
X30956D01*
Y22626D01*
X30896D01*
Y22506D01*
X30956D01*
X30444Y21994D02*
Y21894D01*
X30644D01*
Y21994D01*
X30744D01*
Y22194D01*
X30644D01*
Y22294D01*
X30444D01*
Y22194D01*
X30344D01*
Y21994D01*
X30444D01*
X30484Y22034D02*
Y21974D01*
X30604D01*
Y22034D01*
X30664D01*
Y22154D01*
X30604D01*
Y22214D01*
X30484D01*
Y22154D01*
X30424D01*
Y22034D01*
X30484D01*
X30916Y21994D02*
Y21894D01*
X31116D01*
Y21994D01*
X31216D01*
Y22194D01*
X31116D01*
Y22294D01*
X30916D01*
Y22194D01*
X30816D01*
Y21994D01*
X30916D01*
X30956Y22034D02*
Y21974D01*
X31076D01*
Y22034D01*
X31136D01*
Y22154D01*
X31076D01*
Y22214D01*
X30956D01*
Y22154D01*
X30896D01*
Y22034D01*
X30956D01*
X18830Y27160D02*
X18930Y27360D01*
X18830Y27560D01*
X19030Y27460D01*
X19230Y27560D01*
X19130Y27360D01*
X19230Y27160D01*
X19030Y27260D01*
X18830Y27160D01*
X18910Y27240D02*
X18970Y27360D01*
X18910Y27480D01*
X19030Y27420D01*
X19150Y27480D01*
X19090Y27360D01*
X19150Y27240D01*
X19030Y27300D01*
X18910Y27240D01*
X19150Y16370D02*
X19250Y16470D01*
X19350D01*
X19250Y16570D01*
X19350Y16670D01*
X19250D01*
X19150Y16770D01*
X19050Y16670D01*
X18950D01*
X19050Y16570D01*
X18950Y16470D01*
X19050D01*
X19150Y16370D01*
Y16450D02*
X19210Y16510D01*
X19270D01*
X19210Y16570D01*
X19270Y16630D01*
X19210D01*
X19150Y16690D01*
X19090Y16630D01*
X19030D01*
X19090Y16570D01*
X19030Y16510D01*
X19090D01*
X19150Y16450D01*
Y15270D02*
X19250Y15370D01*
X19350D01*
X19250Y15470D01*
X19350Y15570D01*
X19250D01*
X19150Y15670D01*
X19050Y15570D01*
X18950D01*
X19050Y15470D01*
X18950Y15370D01*
X19050D01*
X19150Y15270D01*
Y15350D02*
X19210Y15410D01*
X19270D01*
X19210Y15470D01*
X19270Y15530D01*
X19210D01*
X19150Y15590D01*
X19090Y15530D01*
X19030D01*
X19090Y15470D01*
X19030Y15410D01*
X19090D01*
X19150Y15350D01*
X8770Y17890D02*
X8870Y17990D01*
X8970D01*
X8870Y18090D01*
X8970Y18190D01*
X8870D01*
X8770Y18290D01*
X8670Y18190D01*
X8570D01*
X8670Y18090D01*
X8570Y17990D01*
X8670D01*
X8770Y17890D01*
Y17970D02*
X8830Y18030D01*
X8890D01*
X8830Y18090D01*
X8890Y18150D01*
X8830D01*
X8770Y18210D01*
X8710Y18150D01*
X8650D01*
X8710Y18090D01*
X8650Y18030D01*
X8710D01*
X8770Y17970D01*
X7634Y17864D02*
X7734Y17964D01*
X7834D01*
X7734Y18064D01*
X7834Y18164D01*
X7734D01*
X7634Y18264D01*
X7534Y18164D01*
X7434D01*
X7534Y18064D01*
X7434Y17964D01*
X7534D01*
X7634Y17864D01*
Y17944D02*
X7694Y18004D01*
X7754D01*
X7694Y18064D01*
X7754Y18124D01*
X7694D01*
X7634Y18184D01*
X7574Y18124D01*
X7514D01*
X7574Y18064D01*
X7514Y18004D01*
X7574D01*
X7634Y17944D01*
X28280Y26440D02*
X28380Y26540D01*
X28480D01*
X28380Y26640D01*
X28480Y26740D01*
X28380D01*
X28280Y26840D01*
X28180Y26740D01*
X28080D01*
X28180Y26640D01*
X28080Y26540D01*
X28180D01*
X28280Y26440D01*
Y26520D02*
X28340Y26580D01*
X28400D01*
X28340Y26640D01*
X28400Y26700D01*
X28340D01*
X28280Y26760D01*
X28220Y26700D01*
X28160D01*
X28220Y26640D01*
X28160Y26580D01*
X28220D01*
X28280Y26520D01*
X25700Y26640D02*
X25800Y26740D01*
X25900D01*
X25800Y26840D01*
X25900Y26940D01*
X25800D01*
X25700Y27040D01*
X25600Y26940D01*
X25500D01*
X25600Y26840D01*
X25500Y26740D01*
X25600D01*
X25700Y26640D01*
Y26720D02*
X25760Y26780D01*
X25820D01*
X25760Y26840D01*
X25820Y26900D01*
X25760D01*
X25700Y26960D01*
X25640Y26900D01*
X25580D01*
X25640Y26840D01*
X25580Y26780D01*
X25640D01*
X25700Y26720D01*
X31350Y25920D02*
X31450Y26020D01*
X31550D01*
X31450Y26120D01*
X31550Y26220D01*
X31450D01*
X31350Y26320D01*
X31250Y26220D01*
X31150D01*
X31250Y26120D01*
X31150Y26020D01*
X31250D01*
X31350Y25920D01*
Y26000D02*
X31410Y26060D01*
X31470D01*
X31410Y26120D01*
X31470Y26180D01*
X31410D01*
X31350Y26240D01*
X31290Y26180D01*
X31230D01*
X31290Y26120D01*
X31230Y26060D01*
X31290D01*
X31350Y26000D01*
X37260Y24540D02*
X37360Y24640D01*
X37460D01*
X37360Y24740D01*
X37460Y24840D01*
X37360D01*
X37260Y24940D01*
X37160Y24840D01*
X37060D01*
X37160Y24740D01*
X37060Y24640D01*
X37160D01*
X37260Y24540D01*
Y24620D02*
X37320Y24680D01*
X37380D01*
X37320Y24740D01*
X37380Y24800D01*
X37320D01*
X37260Y24860D01*
X37200Y24800D01*
X37140D01*
X37200Y24740D01*
X37140Y24680D01*
X37200D01*
X37260Y24620D01*
X36540Y25520D02*
X36640Y25620D01*
X36740D01*
X36640Y25720D01*
X36740Y25820D01*
X36640D01*
X36540Y25920D01*
X36440Y25820D01*
X36340D01*
X36440Y25720D01*
X36340Y25620D01*
X36440D01*
X36540Y25520D01*
Y25600D02*
X36600Y25660D01*
X36660D01*
X36600Y25720D01*
X36660Y25780D01*
X36600D01*
X36540Y25840D01*
X36480Y25780D01*
X36420D01*
X36480Y25720D01*
X36420Y25660D01*
X36480D01*
X36540Y25600D01*
X38860Y23930D02*
X38960Y24030D01*
X39060D01*
X38960Y24130D01*
X39060Y24230D01*
X38960D01*
X38860Y24330D01*
X38760Y24230D01*
X38660D01*
X38760Y24130D01*
X38660Y24030D01*
X38760D01*
X38860Y23930D01*
Y24010D02*
X38920Y24070D01*
X38980D01*
X38920Y24130D01*
X38980Y24190D01*
X38920D01*
X38860Y24250D01*
X38800Y24190D01*
X38740D01*
X38800Y24130D01*
X38740Y24070D01*
X38800D01*
X38860Y24010D01*
X44110Y27370D02*
X44210Y27470D01*
X44310D01*
X44210Y27570D01*
X44310Y27670D01*
X44210D01*
X44110Y27770D01*
X44010Y27670D01*
X43910D01*
X44010Y27570D01*
X43910Y27470D01*
X44010D01*
X44110Y27370D01*
Y27450D02*
X44170Y27510D01*
X44230D01*
X44170Y27570D01*
X44230Y27630D01*
X44170D01*
X44110Y27690D01*
X44050Y27630D01*
X43990D01*
X44050Y27570D01*
X43990Y27510D01*
X44050D01*
X44110Y27450D01*
X18700Y18740D02*
X18800Y18840D01*
X18900D01*
X18800Y18940D01*
X18900Y19040D01*
X18800D01*
X18700Y19140D01*
X18600Y19040D01*
X18500D01*
X18600Y18940D01*
X18500Y18840D01*
X18600D01*
X18700Y18740D01*
Y18820D02*
X18760Y18880D01*
X18820D01*
X18760Y18940D01*
X18820Y19000D01*
X18760D01*
X18700Y19060D01*
X18640Y19000D01*
X18580D01*
X18640Y18940D01*
X18580Y18880D01*
X18640D01*
X18700Y18820D01*
X23270Y16780D02*
X23370Y16980D01*
X23270Y17180D01*
X23470Y17080D01*
X23670Y17180D01*
X23570Y16980D01*
X23670Y16780D01*
X23470Y16880D01*
X23270Y16780D01*
X23350Y16860D02*
X23410Y16980D01*
X23350Y17100D01*
X23470Y17040D01*
X23590Y17100D01*
X23530Y16980D01*
X23590Y16860D01*
X23470Y16920D01*
X23350Y16860D01*
X28540Y16650D02*
X28640Y16750D01*
X28740D01*
X28640Y16850D01*
X28740Y16950D01*
X28640D01*
X28540Y17050D01*
X28440Y16950D01*
X28340D01*
X28440Y16850D01*
X28340Y16750D01*
X28440D01*
X28540Y16650D01*
Y16730D02*
X28600Y16790D01*
X28660D01*
X28600Y16850D01*
X28660Y16910D01*
X28600D01*
X28540Y16970D01*
X28480Y16910D01*
X28420D01*
X28480Y16850D01*
X28420Y16790D01*
X28480D01*
X28540Y16730D01*
X25680Y24780D02*
X25780Y24880D01*
X25880D01*
X25780Y24980D01*
X25880Y25080D01*
X25780D01*
X25680Y25180D01*
X25580Y25080D01*
X25480D01*
X25580Y24980D01*
X25480Y24880D01*
X25580D01*
X25680Y24780D01*
Y24860D02*
X25740Y24920D01*
X25800D01*
X25740Y24980D01*
X25800Y25040D01*
X25740D01*
X25680Y25100D01*
X25620Y25040D01*
X25560D01*
X25620Y24980D01*
X25560Y24920D01*
X25620D01*
X25680Y24860D01*
X25110Y25240D02*
X25210Y25340D01*
X25310D01*
X25210Y25440D01*
X25310Y25540D01*
X25210D01*
X25110Y25640D01*
X25010Y25540D01*
X24910D01*
X25010Y25440D01*
X24910Y25340D01*
X25010D01*
X25110Y25240D01*
Y25320D02*
X25170Y25380D01*
X25230D01*
X25170Y25440D01*
X25230Y25500D01*
X25170D01*
X25110Y25560D01*
X25050Y25500D01*
X24990D01*
X25050Y25440D01*
X24990Y25380D01*
X25050D01*
X25110Y25320D01*
D149*
X24047Y1356D02*
G03*
X24047Y1356I-200J0D01*
G01*
X20047D02*
G03*
X20047Y1356I-200J0D01*
G01*
X18614D02*
G03*
X18614Y1356I-200J0D01*
G01*
X14614D02*
G03*
X14614Y1356I-200J0D01*
G01*
X13180D02*
G03*
X13180Y1356I-200J0D01*
G01*
X9180D02*
G03*
X9180Y1356I-200J0D01*
G01*
X29480D02*
G03*
X29480Y1356I-200J0D01*
G01*
X25480D02*
G03*
X25480Y1356I-200J0D01*
G01*
X7747D02*
G03*
X7747Y1356I-200J0D01*
G01*
X3747D02*
G03*
X3747Y1356I-200J0D01*
G01*
X22633Y23497D02*
G03*
X22633Y23497I-200J0D01*
G01*
Y23167D02*
G03*
X22633Y23167I-200J0D01*
G01*
Y22837D02*
G03*
X22633Y22837I-200J0D01*
G01*
X22293D02*
G03*
X22293Y22837I-200J0D01*
G01*
Y23167D02*
G03*
X22293Y23167I-200J0D01*
G01*
Y23497D02*
G03*
X22293Y23497I-200J0D01*
G01*
X21943D02*
G03*
X21943Y23497I-200J0D01*
G01*
Y23167D02*
G03*
X21943Y23167I-200J0D01*
G01*
Y22837D02*
G03*
X21943Y22837I-200J0D01*
G01*
X36346Y1356D02*
G03*
X36346Y1356I-200J0D01*
G01*
X40346D02*
G03*
X40346Y1356I-200J0D01*
G01*
X30913D02*
G03*
X30913Y1356I-200J0D01*
G01*
X34913D02*
G03*
X34913Y1356I-200J0D01*
G01*
X41788Y1350D02*
G03*
X41788Y1350I-200J0D01*
G01*
X45788D02*
G03*
X45788Y1350I-200J0D01*
G01*
X12150Y11260D02*
G03*
X12150Y11260I-200J0D01*
G01*
X13480Y26178D02*
G03*
X13480Y26178I-200J0D01*
G01*
X14070Y25260D02*
G03*
X14070Y25260I-200J0D01*
G01*
X12060Y26140D02*
G03*
X12060Y26140I-200J0D01*
G01*
X28950Y22090D02*
G03*
X28950Y22090I-200J0D01*
G01*
X29510Y23370D02*
G03*
X29510Y23370I-200J0D01*
G01*
X37990Y28230D02*
G03*
X37990Y28230I-200J0D01*
G01*
X42030Y22160D02*
G03*
X42030Y22160I-200J0D01*
G01*
X23450Y14750D02*
G03*
X23450Y14750I-200J0D01*
G01*
X21260Y14510D02*
G03*
X21260Y14510I-200J0D01*
G01*
X21250Y13830D02*
G03*
X21250Y13830I-200J0D01*
G01*
X33160Y22630D02*
G03*
X33160Y22630I-200J0D01*
G01*
X25860Y15630D02*
G03*
X25860Y15630I-200J0D01*
G01*
X27320Y21840D02*
G03*
X27320Y21840I-200J0D01*
G01*
X30150Y23370D02*
G03*
X30150Y23370I-200J0D01*
G01*
X31889Y20411D02*
G03*
X31889Y20411I-200J0D01*
G01*
X32160Y19240D02*
G03*
X32160Y19240I-200J0D01*
G01*
X32620Y18800D02*
G03*
X32620Y18800I-200J0D01*
G01*
X31850Y18200D02*
G03*
X31850Y18200I-200J0D01*
G01*
X13470Y20620D02*
G03*
X13470Y20620I-200J0D01*
G01*
X13240Y17850D02*
G03*
X13240Y17850I-200J0D01*
G01*
X17190Y19070D02*
G03*
X17190Y19070I-200J0D01*
G01*
X35460Y19790D02*
G03*
X35460Y19790I-200J0D01*
G01*
X35300Y20180D02*
G03*
X35300Y20180I-200J0D01*
G01*
X35580Y18210D02*
G03*
X35580Y18210I-200J0D01*
G01*
X17760Y22070D02*
G03*
X17760Y22070I-200J0D01*
G01*
X16140Y22060D02*
G03*
X16140Y22060I-200J0D01*
G01*
X19320Y24830D02*
G03*
X19320Y24830I-200J0D01*
G01*
X27410Y18570D02*
G03*
X27410Y18570I-200J0D01*
G01*
X25829Y18630D02*
G03*
X25829Y18630I-200J0D01*
G01*
X24960Y17150D02*
G03*
X24960Y17150I-200J0D01*
G01*
X14720Y17530D02*
G03*
X14720Y17530I-200J0D01*
G01*
X21110Y16580D02*
G03*
X21110Y16580I-200J0D01*
G01*
X19842Y24171D02*
G03*
X19842Y24171I-200J0D01*
G01*
X19251Y24328D02*
G03*
X19251Y24328I-200J0D01*
G01*
X29090Y27570D02*
G03*
X29090Y27570I-200J0D01*
G01*
X8040Y24710D02*
G03*
X8040Y24710I-200J0D01*
G01*
X8180Y25170D02*
G03*
X8180Y25170I-200J0D01*
G01*
X8820Y19690D02*
G03*
X8820Y19690I-200J0D01*
G01*
X11630Y20300D02*
G03*
X11630Y20300I-200J0D01*
G01*
X12870Y17600D02*
G03*
X12870Y17600I-200J0D01*
G01*
X13060Y18290D02*
G03*
X13060Y18290I-200J0D01*
G01*
X33690Y22890D02*
G03*
X33690Y22890I-200J0D01*
G01*
X35860Y21790D02*
G03*
X35860Y21790I-200J0D01*
G01*
X32470Y22500D02*
G03*
X32470Y22500I-200J0D01*
G01*
X34320Y12580D02*
G03*
X34320Y12580I-200J0D01*
G01*
X36390Y17540D02*
G03*
X36390Y17540I-200J0D01*
G01*
X33730Y21740D02*
G03*
X33730Y21740I-200J0D01*
G01*
X26590Y17280D02*
G03*
X26590Y17280I-200J0D01*
G01*
X36590Y21140D02*
G03*
X36590Y21140I-200J0D01*
G01*
X10980Y27970D02*
G03*
X10980Y27970I-200J0D01*
G01*
X10109Y27290D02*
G03*
X10109Y27290I-200J0D01*
G01*
X11570Y27949D02*
G03*
X11570Y27949I-200J0D01*
G01*
X10109Y27870D02*
G03*
X10109Y27870I-200J0D01*
G01*
X2110Y11090D02*
G03*
X2110Y11090I-200J0D01*
G01*
X19190Y25620D02*
G03*
X19190Y25620I-200J0D01*
G01*
X7870Y23900D02*
G03*
X7870Y23900I-200J0D01*
G01*
X44230Y16450D02*
G03*
X44230Y16450I-200J0D01*
G01*
X17500Y11250D02*
G03*
X17500Y11250I-200J0D01*
G01*
X42300Y16090D02*
G03*
X42300Y16090I-200J0D01*
G01*
X45000Y20850D02*
G03*
X45000Y20850I-200J0D01*
G01*
X30810Y27510D02*
G03*
X30810Y27510I-200J0D01*
G01*
X38880Y18110D02*
G03*
X38880Y18110I-200J0D01*
G01*
X36410Y16360D02*
G03*
X36410Y16360I-200J0D01*
G01*
X37390Y16370D02*
G03*
X37390Y16370I-200J0D01*
G01*
X31300Y13530D02*
G03*
X31300Y13530I-200J0D01*
G01*
X44620Y15980D02*
G03*
X44620Y15980I-200J0D01*
G01*
X48960Y15220D02*
G03*
X48960Y15220I-200J0D01*
G01*
X46440Y13910D02*
G03*
X46440Y13910I-200J0D01*
G01*
X48730Y13440D02*
G03*
X48730Y13440I-200J0D01*
G01*
X47580Y7940D02*
G03*
X47580Y7940I-200J0D01*
G01*
X46680Y5750D02*
G03*
X46680Y5750I-200J0D01*
G01*
X21890Y9220D02*
G03*
X21890Y9220I-200J0D01*
G01*
X32720Y9200D02*
G03*
X32720Y9200I-200J0D01*
G01*
X27360D02*
G03*
X27360Y9200I-200J0D01*
G01*
X25660Y13680D02*
G03*
X25660Y13680I-200J0D01*
G01*
X43550Y9230D02*
G03*
X43550Y9230I-200J0D01*
G01*
X38150Y9210D02*
G03*
X38150Y9210I-200J0D01*
G01*
X44710Y11280D02*
G03*
X44710Y11280I-200J0D01*
G01*
X6750Y11250D02*
G03*
X6750Y11250I-200J0D01*
G01*
X16460Y9190D02*
G03*
X16460Y9190I-200J0D01*
G01*
X28390Y11240D02*
G03*
X28390Y11240I-200J0D01*
G01*
X11030Y9170D02*
G03*
X11030Y9170I-200J0D01*
G01*
X5640Y9210D02*
G03*
X5640Y9210I-200J0D01*
G01*
X33830Y11240D02*
G03*
X33830Y11240I-200J0D01*
G01*
X39260Y11260D02*
G03*
X39260Y11260I-200J0D01*
G01*
X34820Y14610D02*
G03*
X34820Y14610I-200J0D01*
G01*
X24440Y25260D02*
G03*
X24440Y25260I-200J0D01*
G01*
X25310Y25010D02*
G03*
X25310Y25010I-200J0D01*
G01*
X17200Y28000D02*
G03*
X17200Y28000I-200J0D01*
G01*
X24570Y27910D02*
G03*
X24570Y27910I-200J0D01*
G01*
X23350Y27380D02*
G03*
X23350Y27380I-200J0D01*
G01*
X20340Y26000D02*
G03*
X20340Y26000I-200J0D01*
G01*
X17730Y26120D02*
G03*
X17730Y26120I-200J0D01*
G01*
X18580Y26000D02*
G03*
X18580Y26000I-200J0D01*
G01*
X12800Y25550D02*
G03*
X12800Y25550I-200J0D01*
G01*
X17720Y27940D02*
G03*
X17720Y27940I-200J0D01*
G01*
X1680Y8290D02*
G03*
X1680Y8290I-200J0D01*
G01*
X510Y11030D02*
G03*
X510Y11030I-200J0D01*
G01*
X1040Y7810D02*
G03*
X1040Y7810I-200J0D01*
G01*
X18510Y27940D02*
G03*
X18510Y27940I-200J0D01*
G01*
X30800Y15060D02*
G03*
X30800Y15060I-200J0D01*
G01*
X8500Y16820D02*
G03*
X8500Y16820I-200J0D01*
G01*
X9040Y15180D02*
G03*
X9040Y15180I-200J0D01*
G01*
X14740Y16350D02*
G03*
X14740Y16350I-200J0D01*
G01*
X11000Y16750D02*
G03*
X11000Y16750I-200J0D01*
G01*
X33050Y16160D02*
G03*
X33050Y16160I-200J0D01*
G01*
X32670Y16750D02*
G03*
X32670Y16750I-200J0D01*
G01*
X33290Y13070D02*
G03*
X33290Y13070I-200J0D01*
G01*
X15760Y20600D02*
G03*
X15760Y20600I-200J0D01*
G01*
X13130Y14610D02*
G03*
X13130Y14610I-200J0D01*
G01*
X14570Y15960D02*
G03*
X14570Y15960I-200J0D01*
G01*
X11450Y13050D02*
G03*
X11450Y13050I-200J0D01*
G01*
X13060Y20240D02*
G03*
X13060Y20240I-200J0D01*
G01*
X16020Y24070D02*
G03*
X16020Y24070I-200J0D01*
G01*
X30110Y28040D02*
G03*
X30110Y28040I-200J0D01*
G01*
X16110Y20200D02*
G03*
X16110Y20200I-200J0D01*
G01*
X12940Y13020D02*
G03*
X12940Y13020I-200J0D01*
G01*
X41420Y17860D02*
G03*
X41420Y17860I-200J0D01*
G01*
X45510Y19620D02*
G03*
X45510Y19620I-200J0D01*
G01*
X41760Y19330D02*
G03*
X41760Y19330I-200J0D01*
G01*
X22970Y25560D02*
G03*
X22970Y25560I-200J0D01*
G01*
X21160Y26900D02*
G03*
X21160Y26900I-200J0D01*
G01*
X21940Y25800D02*
G03*
X21940Y25800I-200J0D01*
G01*
X21680Y26140D02*
G03*
X21680Y26140I-200J0D01*
G01*
X20900Y26010D02*
G03*
X20900Y26010I-200J0D01*
G01*
X22200Y25470D02*
G03*
X22200Y25470I-200J0D01*
G01*
X23390Y25490D02*
G03*
X23390Y25490I-200J0D01*
G01*
X23800Y26150D02*
G03*
X23800Y26150I-200J0D01*
G01*
X41900Y13530D02*
G03*
X41900Y13530I-200J0D01*
G01*
X32660Y15940D02*
G03*
X32660Y15940I-200J0D01*
G01*
X40730Y14060D02*
G03*
X40730Y14060I-200J0D01*
G01*
X22640Y24350D02*
G03*
X22640Y24350I-200J0D01*
G01*
X22370Y24020D02*
G03*
X22370Y24020I-200J0D01*
G01*
X21910Y24340D02*
G03*
X21910Y24340I-200J0D01*
G01*
X12180Y20850D02*
G03*
X12180Y20850I-200J0D01*
G01*
X12550Y20240D02*
G03*
X12550Y20240I-200J0D01*
G01*
X14070Y21130D02*
G03*
X14070Y21130I-200J0D01*
G01*
X18610Y21750D02*
G03*
X18610Y21750I-200J0D01*
G01*
X18170Y23920D02*
G03*
X18170Y23920I-200J0D01*
G01*
X18640D02*
G03*
X18640Y23920I-200J0D01*
G01*
X19060Y22100D02*
G03*
X19060Y22100I-200J0D01*
G01*
X19600D02*
G03*
X19600Y22100I-200J0D01*
G01*
X19570Y21260D02*
G03*
X19570Y21260I-200J0D01*
G01*
X21530Y24460D02*
G03*
X21530Y24460I-200J0D01*
G01*
X21160Y24380D02*
G03*
X21160Y24380I-200J0D01*
G01*
X21170Y23120D02*
G03*
X21170Y23120I-200J0D01*
G01*
X21180Y22580D02*
G03*
X21180Y22580I-200J0D01*
G01*
X21850Y21950D02*
G03*
X21850Y21950I-200J0D01*
G01*
X21550Y22150D02*
G03*
X21550Y22150I-200J0D01*
G01*
X23508Y23088D02*
G03*
X23508Y23088I-200J0D01*
G01*
X21250Y22085D02*
G03*
X21250Y22085I-200J0D01*
G01*
X22250Y22150D02*
G03*
X22250Y22150I-200J0D01*
G01*
X22730Y22280D02*
G03*
X22730Y22280I-200J0D01*
G01*
X22970Y21910D02*
G03*
X22970Y21910I-200J0D01*
G01*
X23170Y23570D02*
G03*
X23170Y23570I-200J0D01*
G01*
X20020Y22090D02*
G03*
X20020Y22090I-200J0D01*
G01*
X26010Y21280D02*
G03*
X26010Y21280I-200J0D01*
G01*
X20650Y18040D02*
G03*
X20650Y18040I-200J0D01*
G01*
X13580Y20010D02*
G03*
X13580Y20010I-200J0D01*
G01*
X11370Y19690D02*
G03*
X11370Y19690I-200J0D01*
G01*
X10780Y19700D02*
G03*
X10780Y19700I-200J0D01*
G01*
X20510Y19560D02*
G03*
X20510Y19560I-200J0D01*
G01*
X19260Y19630D02*
G03*
X19260Y19630I-200J0D01*
G01*
X19050Y20070D02*
G03*
X19050Y20070I-200J0D01*
G01*
X18690Y20290D02*
G03*
X18690Y20290I-200J0D01*
G01*
X21640Y18960D02*
G03*
X21640Y18960I-200J0D01*
G01*
X35977Y17305D02*
G03*
X35977Y17305I-200J0D01*
G01*
X28850Y16240D02*
G03*
X28850Y16240I-200J0D01*
G01*
X9470Y13730D02*
G03*
X9470Y13730I-200J0D01*
G01*
X6070Y8000D02*
G03*
X6070Y8000I-200J0D01*
G01*
X11470Y7980D02*
G03*
X11470Y7980I-200J0D01*
G01*
X16910Y7970D02*
G03*
X16910Y7970I-200J0D01*
G01*
X22350Y7890D02*
G03*
X22350Y7890I-200J0D01*
G01*
X8440Y13790D02*
G03*
X8440Y13790I-200J0D01*
G01*
X30270Y13590D02*
G03*
X30270Y13590I-200J0D01*
G01*
X27800Y8070D02*
G03*
X27800Y8070I-200J0D01*
G01*
X33160Y8080D02*
G03*
X33160Y8080I-200J0D01*
G01*
X38590D02*
G03*
X38590Y8080I-200J0D01*
G01*
X44040Y8070D02*
G03*
X44040Y8070I-200J0D01*
G01*
X23200Y17730D02*
G03*
X23200Y17730I-200J0D01*
G01*
X35340Y20800D02*
G03*
X35340Y20800I-200J0D01*
G01*
X23010Y11250D02*
G03*
X23010Y11250I-200J0D01*
G01*
X27000Y16510D02*
G03*
X27000Y16510I-200J0D01*
G01*
X26610Y16720D02*
G03*
X26610Y16720I-200J0D01*
G01*
X14260Y15630D02*
G03*
X14260Y15630I-200J0D01*
G01*
X25430Y16350D02*
G03*
X25430Y16350I-200J0D01*
G01*
X24710Y16050D02*
G03*
X24710Y16050I-200J0D01*
G01*
X24370Y17080D02*
G03*
X24370Y17080I-200J0D01*
G01*
X20750Y20930D02*
G03*
X20750Y20930I-200J0D01*
G01*
X20120Y21100D02*
G03*
X20120Y21100I-200J0D01*
G01*
X27750Y16990D02*
G03*
X27750Y16990I-200J0D01*
G01*
X28543Y18737D02*
G03*
X28543Y18737I-200J0D01*
G01*
X28330Y16520D02*
G03*
X28330Y16520I-200J0D01*
G01*
X28350Y19350D02*
G03*
X28350Y19350I-200J0D01*
G01*
X31347Y21029D02*
G03*
X31347Y21029I-200J0D01*
G01*
X24500Y21470D02*
G03*
X24500Y21470I-200J0D01*
G01*
X28310Y21070D02*
G03*
X28310Y21070I-200J0D01*
G01*
X24140Y19870D02*
G03*
X24140Y19870I-200J0D01*
G01*
X23350Y20910D02*
G03*
X23350Y20910I-200J0D01*
G01*
X24030Y20830D02*
G03*
X24030Y20830I-200J0D01*
G01*
X24629Y21049D02*
G03*
X24629Y21049I-200J0D01*
G01*
X24000Y19060D02*
G03*
X24000Y19060I-200J0D01*
G01*
X24716Y19924D02*
G03*
X24716Y19924I-200J0D01*
G01*
X24740Y20540D02*
G03*
X24740Y20540I-200J0D01*
G01*
X24440Y20644D02*
G03*
X24440Y20644I-200J0D01*
G01*
X24200Y20290D02*
G03*
X24200Y20290I-200J0D01*
G01*
X23740Y18890D02*
G03*
X23740Y18890I-200J0D01*
G01*
X24220Y19450D02*
G03*
X24220Y19450I-200J0D01*
G01*
X23758Y19582D02*
G03*
X23758Y19582I-200J0D01*
G01*
X23260Y20610D02*
G03*
X23260Y20610I-200J0D01*
G01*
X23230Y20100D02*
G03*
X23230Y20100I-200J0D01*
G01*
X22080Y20120D02*
G03*
X22080Y20120I-200J0D01*
G01*
X21020Y20600D02*
G03*
X21020Y20600I-200J0D01*
G01*
X21840Y20920D02*
G03*
X21840Y20920I-200J0D01*
G01*
X22223Y20537D02*
G03*
X22223Y20537I-200J0D01*
G01*
X22520Y20240D02*
G03*
X22520Y20240I-200J0D01*
G01*
X21590Y16860D02*
G03*
X21590Y16860I-200J0D01*
G01*
X21540Y18300D02*
G03*
X21540Y18300I-200J0D01*
G01*
X21650Y17770D02*
G03*
X21650Y17770I-200J0D01*
G01*
X21710Y19840D02*
G03*
X21710Y19840I-200J0D01*
G01*
X23890Y15040D02*
G03*
X23890Y15040I-200J0D01*
G01*
X27690Y20500D02*
G03*
X27690Y20500I-200J0D01*
G01*
X27830Y20080D02*
G03*
X27830Y20080I-200J0D01*
G01*
X27230Y20570D02*
G03*
X27230Y20570I-200J0D01*
G01*
X5984Y10548D02*
G03*
X5984Y10548I-200J0D01*
G01*
Y10174D02*
G03*
X5984Y10174I-200J0D01*
G01*
X5629Y10548D02*
G03*
X5629Y10548I-200J0D01*
G01*
Y10174D02*
G03*
X5629Y10174I-200J0D01*
G01*
X27635Y10535D02*
G03*
X27635Y10535I-200J0D01*
G01*
Y10161D02*
G03*
X27635Y10161I-200J0D01*
G01*
X27281Y10535D02*
G03*
X27281Y10535I-200J0D01*
G01*
Y10161D02*
G03*
X27281Y10161I-200J0D01*
G01*
X38484Y10550D02*
G03*
X38484Y10550I-200J0D01*
G01*
Y10176D02*
G03*
X38484Y10176I-200J0D01*
G01*
X38130Y10550D02*
G03*
X38130Y10550I-200J0D01*
G01*
Y10176D02*
G03*
X38130Y10176I-200J0D01*
G01*
X33062Y10539D02*
G03*
X33062Y10539I-200J0D01*
G01*
Y10165D02*
G03*
X33062Y10165I-200J0D01*
G01*
X32707Y10539D02*
G03*
X32707Y10539I-200J0D01*
G01*
Y10165D02*
G03*
X32707Y10165I-200J0D01*
G01*
X43945Y10579D02*
G03*
X43945Y10579I-200J0D01*
G01*
Y10205D02*
G03*
X43945Y10205I-200J0D01*
G01*
X43590Y10579D02*
G03*
X43590Y10579I-200J0D01*
G01*
Y10205D02*
G03*
X43590Y10205I-200J0D01*
G01*
X16732Y10548D02*
G03*
X16732Y10548I-200J0D01*
G01*
Y10174D02*
G03*
X16732Y10174I-200J0D01*
G01*
X16377Y10548D02*
G03*
X16377Y10548I-200J0D01*
G01*
Y10174D02*
G03*
X16377Y10174I-200J0D01*
G01*
X11377Y10548D02*
G03*
X11377Y10548I-200J0D01*
G01*
Y10174D02*
G03*
X11377Y10174I-200J0D01*
G01*
X11023Y10548D02*
G03*
X11023Y10548I-200J0D01*
G01*
Y10174D02*
G03*
X11023Y10174I-200J0D01*
G01*
X22243Y10548D02*
G03*
X22243Y10548I-200J0D01*
G01*
Y10174D02*
G03*
X22243Y10174I-200J0D01*
G01*
X21889Y10548D02*
G03*
X21889Y10548I-200J0D01*
G01*
Y10174D02*
G03*
X21889Y10174I-200J0D01*
G01*
X30120Y19670D02*
G03*
X30120Y19670I-200J0D01*
G01*
X24810Y25050D02*
G03*
X24810Y25050I-200J0D01*
G01*
X11320Y23240D02*
G03*
X11320Y23240I-200J0D01*
G01*
D150*
X22553Y23497D02*
G03*
X22553Y23497I-120J0D01*
G01*
Y23167D02*
G03*
X22553Y23167I-120J0D01*
G01*
Y22837D02*
G03*
X22553Y22837I-120J0D01*
G01*
X22213D02*
G03*
X22213Y22837I-120J0D01*
G01*
Y23167D02*
G03*
X22213Y23167I-120J0D01*
G01*
Y23497D02*
G03*
X22213Y23497I-120J0D01*
G01*
X21863D02*
G03*
X21863Y23497I-120J0D01*
G01*
Y23167D02*
G03*
X21863Y23167I-120J0D01*
G01*
Y22837D02*
G03*
X21863Y22837I-120J0D01*
G01*
X12070Y11260D02*
G03*
X12070Y11260I-120J0D01*
G01*
X13400Y26178D02*
G03*
X13400Y26178I-120J0D01*
G01*
X13990Y25260D02*
G03*
X13990Y25260I-120J0D01*
G01*
X11980Y26140D02*
G03*
X11980Y26140I-120J0D01*
G01*
X28870Y22090D02*
G03*
X28870Y22090I-120J0D01*
G01*
X29430Y23370D02*
G03*
X29430Y23370I-120J0D01*
G01*
X37910Y28230D02*
G03*
X37910Y28230I-120J0D01*
G01*
X41950Y22160D02*
G03*
X41950Y22160I-120J0D01*
G01*
X23370Y14750D02*
G03*
X23370Y14750I-120J0D01*
G01*
X21180Y14510D02*
G03*
X21180Y14510I-120J0D01*
G01*
X21170Y13830D02*
G03*
X21170Y13830I-120J0D01*
G01*
X33080Y22630D02*
G03*
X33080Y22630I-120J0D01*
G01*
X25780Y15630D02*
G03*
X25780Y15630I-120J0D01*
G01*
X27240Y21840D02*
G03*
X27240Y21840I-120J0D01*
G01*
X30070Y23370D02*
G03*
X30070Y23370I-120J0D01*
G01*
X31809Y20411D02*
G03*
X31809Y20411I-120J0D01*
G01*
X32080Y19240D02*
G03*
X32080Y19240I-120J0D01*
G01*
X32540Y18800D02*
G03*
X32540Y18800I-120J0D01*
G01*
X31770Y18200D02*
G03*
X31770Y18200I-120J0D01*
G01*
X13390Y20620D02*
G03*
X13390Y20620I-120J0D01*
G01*
X13160Y17850D02*
G03*
X13160Y17850I-120J0D01*
G01*
X17110Y19070D02*
G03*
X17110Y19070I-120J0D01*
G01*
X35380Y19790D02*
G03*
X35380Y19790I-120J0D01*
G01*
X35220Y20180D02*
G03*
X35220Y20180I-120J0D01*
G01*
X35500Y18210D02*
G03*
X35500Y18210I-120J0D01*
G01*
X17680Y22070D02*
G03*
X17680Y22070I-120J0D01*
G01*
X16060Y22060D02*
G03*
X16060Y22060I-120J0D01*
G01*
X19240Y24830D02*
G03*
X19240Y24830I-120J0D01*
G01*
X27330Y18570D02*
G03*
X27330Y18570I-120J0D01*
G01*
X25749Y18630D02*
G03*
X25749Y18630I-120J0D01*
G01*
X24880Y17150D02*
G03*
X24880Y17150I-120J0D01*
G01*
X14640Y17530D02*
G03*
X14640Y17530I-120J0D01*
G01*
X21030Y16580D02*
G03*
X21030Y16580I-120J0D01*
G01*
X19762Y24171D02*
G03*
X19762Y24171I-120J0D01*
G01*
X19171Y24328D02*
G03*
X19171Y24328I-120J0D01*
G01*
X29010Y27570D02*
G03*
X29010Y27570I-120J0D01*
G01*
X7960Y24710D02*
G03*
X7960Y24710I-120J0D01*
G01*
X8100Y25170D02*
G03*
X8100Y25170I-120J0D01*
G01*
X8740Y19690D02*
G03*
X8740Y19690I-120J0D01*
G01*
X11550Y20300D02*
G03*
X11550Y20300I-120J0D01*
G01*
X12790Y17600D02*
G03*
X12790Y17600I-120J0D01*
G01*
X12980Y18290D02*
G03*
X12980Y18290I-120J0D01*
G01*
X33610Y22890D02*
G03*
X33610Y22890I-120J0D01*
G01*
X35780Y21790D02*
G03*
X35780Y21790I-120J0D01*
G01*
X32390Y22500D02*
G03*
X32390Y22500I-120J0D01*
G01*
X34240Y12580D02*
G03*
X34240Y12580I-120J0D01*
G01*
X36310Y17540D02*
G03*
X36310Y17540I-120J0D01*
G01*
X33650Y21740D02*
G03*
X33650Y21740I-120J0D01*
G01*
X26510Y17280D02*
G03*
X26510Y17280I-120J0D01*
G01*
X36510Y21140D02*
G03*
X36510Y21140I-120J0D01*
G01*
X10900Y27970D02*
G03*
X10900Y27970I-120J0D01*
G01*
X10029Y27290D02*
G03*
X10029Y27290I-120J0D01*
G01*
X11490Y27949D02*
G03*
X11490Y27949I-120J0D01*
G01*
X10029Y27870D02*
G03*
X10029Y27870I-120J0D01*
G01*
X2030Y11090D02*
G03*
X2030Y11090I-120J0D01*
G01*
X19110Y25620D02*
G03*
X19110Y25620I-120J0D01*
G01*
X7790Y23900D02*
G03*
X7790Y23900I-120J0D01*
G01*
X44150Y16450D02*
G03*
X44150Y16450I-120J0D01*
G01*
X17420Y11250D02*
G03*
X17420Y11250I-120J0D01*
G01*
X42220Y16090D02*
G03*
X42220Y16090I-120J0D01*
G01*
X44920Y20850D02*
G03*
X44920Y20850I-120J0D01*
G01*
X30730Y27510D02*
G03*
X30730Y27510I-120J0D01*
G01*
X38800Y18110D02*
G03*
X38800Y18110I-120J0D01*
G01*
X36330Y16360D02*
G03*
X36330Y16360I-120J0D01*
G01*
X37310Y16370D02*
G03*
X37310Y16370I-120J0D01*
G01*
X31220Y13530D02*
G03*
X31220Y13530I-120J0D01*
G01*
X44540Y15980D02*
G03*
X44540Y15980I-120J0D01*
G01*
X48880Y15220D02*
G03*
X48880Y15220I-120J0D01*
G01*
X46360Y13910D02*
G03*
X46360Y13910I-120J0D01*
G01*
X48650Y13440D02*
G03*
X48650Y13440I-120J0D01*
G01*
X47500Y7940D02*
G03*
X47500Y7940I-120J0D01*
G01*
X46600Y5750D02*
G03*
X46600Y5750I-120J0D01*
G01*
X21810Y9220D02*
G03*
X21810Y9220I-120J0D01*
G01*
X32640Y9200D02*
G03*
X32640Y9200I-120J0D01*
G01*
X27280D02*
G03*
X27280Y9200I-120J0D01*
G01*
X25580Y13680D02*
G03*
X25580Y13680I-120J0D01*
G01*
X43470Y9230D02*
G03*
X43470Y9230I-120J0D01*
G01*
X38070Y9210D02*
G03*
X38070Y9210I-120J0D01*
G01*
X44630Y11280D02*
G03*
X44630Y11280I-120J0D01*
G01*
X6670Y11250D02*
G03*
X6670Y11250I-120J0D01*
G01*
X16380Y9190D02*
G03*
X16380Y9190I-120J0D01*
G01*
X28310Y11240D02*
G03*
X28310Y11240I-120J0D01*
G01*
X10950Y9170D02*
G03*
X10950Y9170I-120J0D01*
G01*
X5560Y9210D02*
G03*
X5560Y9210I-120J0D01*
G01*
X33750Y11240D02*
G03*
X33750Y11240I-120J0D01*
G01*
X39180Y11260D02*
G03*
X39180Y11260I-120J0D01*
G01*
X34740Y14610D02*
G03*
X34740Y14610I-120J0D01*
G01*
X24360Y25260D02*
G03*
X24360Y25260I-120J0D01*
G01*
X25230Y25010D02*
G03*
X25230Y25010I-120J0D01*
G01*
X17120Y28000D02*
G03*
X17120Y28000I-120J0D01*
G01*
X24490Y27910D02*
G03*
X24490Y27910I-120J0D01*
G01*
X23270Y27380D02*
G03*
X23270Y27380I-120J0D01*
G01*
X20260Y26000D02*
G03*
X20260Y26000I-120J0D01*
G01*
X17650Y26120D02*
G03*
X17650Y26120I-120J0D01*
G01*
X18500Y26000D02*
G03*
X18500Y26000I-120J0D01*
G01*
X12720Y25550D02*
G03*
X12720Y25550I-120J0D01*
G01*
X17640Y27940D02*
G03*
X17640Y27940I-120J0D01*
G01*
X1600Y8290D02*
G03*
X1600Y8290I-120J0D01*
G01*
X430Y11030D02*
G03*
X430Y11030I-120J0D01*
G01*
X960Y7810D02*
G03*
X960Y7810I-120J0D01*
G01*
X18430Y27940D02*
G03*
X18430Y27940I-120J0D01*
G01*
X30720Y15060D02*
G03*
X30720Y15060I-120J0D01*
G01*
X8420Y16820D02*
G03*
X8420Y16820I-120J0D01*
G01*
X8960Y15180D02*
G03*
X8960Y15180I-120J0D01*
G01*
X14660Y16350D02*
G03*
X14660Y16350I-120J0D01*
G01*
X10920Y16750D02*
G03*
X10920Y16750I-120J0D01*
G01*
X32970Y16160D02*
G03*
X32970Y16160I-120J0D01*
G01*
X32590Y16750D02*
G03*
X32590Y16750I-120J0D01*
G01*
X33210Y13070D02*
G03*
X33210Y13070I-120J0D01*
G01*
X15680Y20600D02*
G03*
X15680Y20600I-120J0D01*
G01*
X13050Y14610D02*
G03*
X13050Y14610I-120J0D01*
G01*
X14490Y15960D02*
G03*
X14490Y15960I-120J0D01*
G01*
X11370Y13050D02*
G03*
X11370Y13050I-120J0D01*
G01*
X12980Y20240D02*
G03*
X12980Y20240I-120J0D01*
G01*
X15940Y24070D02*
G03*
X15940Y24070I-120J0D01*
G01*
X30030Y28040D02*
G03*
X30030Y28040I-120J0D01*
G01*
X16030Y20200D02*
G03*
X16030Y20200I-120J0D01*
G01*
X12860Y13020D02*
G03*
X12860Y13020I-120J0D01*
G01*
X41340Y17860D02*
G03*
X41340Y17860I-120J0D01*
G01*
X45430Y19620D02*
G03*
X45430Y19620I-120J0D01*
G01*
X41680Y19330D02*
G03*
X41680Y19330I-120J0D01*
G01*
X22890Y25560D02*
G03*
X22890Y25560I-120J0D01*
G01*
X21080Y26900D02*
G03*
X21080Y26900I-120J0D01*
G01*
X21860Y25800D02*
G03*
X21860Y25800I-120J0D01*
G01*
X21600Y26140D02*
G03*
X21600Y26140I-120J0D01*
G01*
X20820Y26010D02*
G03*
X20820Y26010I-120J0D01*
G01*
X22120Y25470D02*
G03*
X22120Y25470I-120J0D01*
G01*
X23310Y25490D02*
G03*
X23310Y25490I-120J0D01*
G01*
X23720Y26150D02*
G03*
X23720Y26150I-120J0D01*
G01*
X41820Y13530D02*
G03*
X41820Y13530I-120J0D01*
G01*
X32580Y15940D02*
G03*
X32580Y15940I-120J0D01*
G01*
X40650Y14060D02*
G03*
X40650Y14060I-120J0D01*
G01*
X22560Y24350D02*
G03*
X22560Y24350I-120J0D01*
G01*
X22290Y24020D02*
G03*
X22290Y24020I-120J0D01*
G01*
X21830Y24340D02*
G03*
X21830Y24340I-120J0D01*
G01*
X12100Y20850D02*
G03*
X12100Y20850I-120J0D01*
G01*
X12470Y20240D02*
G03*
X12470Y20240I-120J0D01*
G01*
X13990Y21130D02*
G03*
X13990Y21130I-120J0D01*
G01*
X18530Y21750D02*
G03*
X18530Y21750I-120J0D01*
G01*
X18090Y23920D02*
G03*
X18090Y23920I-120J0D01*
G01*
X18560D02*
G03*
X18560Y23920I-120J0D01*
G01*
X18980Y22100D02*
G03*
X18980Y22100I-120J0D01*
G01*
X19520D02*
G03*
X19520Y22100I-120J0D01*
G01*
X19490Y21260D02*
G03*
X19490Y21260I-120J0D01*
G01*
X21450Y24460D02*
G03*
X21450Y24460I-120J0D01*
G01*
X21080Y24380D02*
G03*
X21080Y24380I-120J0D01*
G01*
X21090Y23120D02*
G03*
X21090Y23120I-120J0D01*
G01*
X21100Y22580D02*
G03*
X21100Y22580I-120J0D01*
G01*
X21770Y21950D02*
G03*
X21770Y21950I-120J0D01*
G01*
X21470Y22150D02*
G03*
X21470Y22150I-120J0D01*
G01*
X23428Y23088D02*
G03*
X23428Y23088I-120J0D01*
G01*
X21170Y22085D02*
G03*
X21170Y22085I-120J0D01*
G01*
X22170Y22150D02*
G03*
X22170Y22150I-120J0D01*
G01*
X22650Y22280D02*
G03*
X22650Y22280I-120J0D01*
G01*
X22890Y21910D02*
G03*
X22890Y21910I-120J0D01*
G01*
X23090Y23570D02*
G03*
X23090Y23570I-120J0D01*
G01*
X19940Y22090D02*
G03*
X19940Y22090I-120J0D01*
G01*
X25930Y21280D02*
G03*
X25930Y21280I-120J0D01*
G01*
X20570Y18040D02*
G03*
X20570Y18040I-120J0D01*
G01*
X13500Y20010D02*
G03*
X13500Y20010I-120J0D01*
G01*
X11290Y19690D02*
G03*
X11290Y19690I-120J0D01*
G01*
X10700Y19700D02*
G03*
X10700Y19700I-120J0D01*
G01*
X20430Y19560D02*
G03*
X20430Y19560I-120J0D01*
G01*
X19180Y19630D02*
G03*
X19180Y19630I-120J0D01*
G01*
X18970Y20070D02*
G03*
X18970Y20070I-120J0D01*
G01*
X18610Y20290D02*
G03*
X18610Y20290I-120J0D01*
G01*
X21560Y18960D02*
G03*
X21560Y18960I-120J0D01*
G01*
X35897Y17305D02*
G03*
X35897Y17305I-120J0D01*
G01*
X28770Y16240D02*
G03*
X28770Y16240I-120J0D01*
G01*
X9390Y13730D02*
G03*
X9390Y13730I-120J0D01*
G01*
X5990Y8000D02*
G03*
X5990Y8000I-120J0D01*
G01*
X11390Y7980D02*
G03*
X11390Y7980I-120J0D01*
G01*
X16830Y7970D02*
G03*
X16830Y7970I-120J0D01*
G01*
X22270Y7890D02*
G03*
X22270Y7890I-120J0D01*
G01*
X8360Y13790D02*
G03*
X8360Y13790I-120J0D01*
G01*
X30190Y13590D02*
G03*
X30190Y13590I-120J0D01*
G01*
X27720Y8070D02*
G03*
X27720Y8070I-120J0D01*
G01*
X33080Y8080D02*
G03*
X33080Y8080I-120J0D01*
G01*
X38510D02*
G03*
X38510Y8080I-120J0D01*
G01*
X43960Y8070D02*
G03*
X43960Y8070I-120J0D01*
G01*
X23120Y17730D02*
G03*
X23120Y17730I-120J0D01*
G01*
X35260Y20800D02*
G03*
X35260Y20800I-120J0D01*
G01*
X22930Y11250D02*
G03*
X22930Y11250I-120J0D01*
G01*
X26920Y16510D02*
G03*
X26920Y16510I-120J0D01*
G01*
X26530Y16720D02*
G03*
X26530Y16720I-120J0D01*
G01*
X14180Y15630D02*
G03*
X14180Y15630I-120J0D01*
G01*
X25350Y16350D02*
G03*
X25350Y16350I-120J0D01*
G01*
X24630Y16050D02*
G03*
X24630Y16050I-120J0D01*
G01*
X24290Y17080D02*
G03*
X24290Y17080I-120J0D01*
G01*
X20670Y20930D02*
G03*
X20670Y20930I-120J0D01*
G01*
X20040Y21100D02*
G03*
X20040Y21100I-120J0D01*
G01*
X27670Y16990D02*
G03*
X27670Y16990I-120J0D01*
G01*
X28463Y18737D02*
G03*
X28463Y18737I-120J0D01*
G01*
X28250Y16520D02*
G03*
X28250Y16520I-120J0D01*
G01*
X28270Y19350D02*
G03*
X28270Y19350I-120J0D01*
G01*
X31267Y21029D02*
G03*
X31267Y21029I-120J0D01*
G01*
X24420Y21470D02*
G03*
X24420Y21470I-120J0D01*
G01*
X28230Y21070D02*
G03*
X28230Y21070I-120J0D01*
G01*
X24060Y19870D02*
G03*
X24060Y19870I-120J0D01*
G01*
X23270Y20910D02*
G03*
X23270Y20910I-120J0D01*
G01*
X23950Y20830D02*
G03*
X23950Y20830I-120J0D01*
G01*
X24549Y21049D02*
G03*
X24549Y21049I-120J0D01*
G01*
X23920Y19060D02*
G03*
X23920Y19060I-120J0D01*
G01*
X24636Y19924D02*
G03*
X24636Y19924I-120J0D01*
G01*
X24660Y20540D02*
G03*
X24660Y20540I-120J0D01*
G01*
X24360Y20644D02*
G03*
X24360Y20644I-120J0D01*
G01*
X24120Y20290D02*
G03*
X24120Y20290I-120J0D01*
G01*
X23660Y18890D02*
G03*
X23660Y18890I-120J0D01*
G01*
X24140Y19450D02*
G03*
X24140Y19450I-120J0D01*
G01*
X23678Y19582D02*
G03*
X23678Y19582I-120J0D01*
G01*
X23180Y20610D02*
G03*
X23180Y20610I-120J0D01*
G01*
X23150Y20100D02*
G03*
X23150Y20100I-120J0D01*
G01*
X22000Y20120D02*
G03*
X22000Y20120I-120J0D01*
G01*
X20940Y20600D02*
G03*
X20940Y20600I-120J0D01*
G01*
X21760Y20920D02*
G03*
X21760Y20920I-120J0D01*
G01*
X22143Y20537D02*
G03*
X22143Y20537I-120J0D01*
G01*
X22440Y20240D02*
G03*
X22440Y20240I-120J0D01*
G01*
X21510Y16860D02*
G03*
X21510Y16860I-120J0D01*
G01*
X21460Y18300D02*
G03*
X21460Y18300I-120J0D01*
G01*
X21570Y17770D02*
G03*
X21570Y17770I-120J0D01*
G01*
X21630Y19840D02*
G03*
X21630Y19840I-120J0D01*
G01*
X23810Y15040D02*
G03*
X23810Y15040I-120J0D01*
G01*
X27610Y20500D02*
G03*
X27610Y20500I-120J0D01*
G01*
X27750Y20080D02*
G03*
X27750Y20080I-120J0D01*
G01*
X27150Y20570D02*
G03*
X27150Y20570I-120J0D01*
G01*
X5904Y10548D02*
G03*
X5904Y10548I-120J0D01*
G01*
Y10174D02*
G03*
X5904Y10174I-120J0D01*
G01*
X5549Y10548D02*
G03*
X5549Y10548I-120J0D01*
G01*
Y10174D02*
G03*
X5549Y10174I-120J0D01*
G01*
X27555Y10535D02*
G03*
X27555Y10535I-120J0D01*
G01*
Y10161D02*
G03*
X27555Y10161I-120J0D01*
G01*
X27201Y10535D02*
G03*
X27201Y10535I-120J0D01*
G01*
Y10161D02*
G03*
X27201Y10161I-120J0D01*
G01*
X38404Y10550D02*
G03*
X38404Y10550I-120J0D01*
G01*
Y10176D02*
G03*
X38404Y10176I-120J0D01*
G01*
X38050Y10550D02*
G03*
X38050Y10550I-120J0D01*
G01*
Y10176D02*
G03*
X38050Y10176I-120J0D01*
G01*
X32982Y10539D02*
G03*
X32982Y10539I-120J0D01*
G01*
Y10165D02*
G03*
X32982Y10165I-120J0D01*
G01*
X32627Y10539D02*
G03*
X32627Y10539I-120J0D01*
G01*
Y10165D02*
G03*
X32627Y10165I-120J0D01*
G01*
X43865Y10579D02*
G03*
X43865Y10579I-120J0D01*
G01*
Y10205D02*
G03*
X43865Y10205I-120J0D01*
G01*
X43510Y10579D02*
G03*
X43510Y10579I-120J0D01*
G01*
Y10205D02*
G03*
X43510Y10205I-120J0D01*
G01*
X16652Y10548D02*
G03*
X16652Y10548I-120J0D01*
G01*
Y10174D02*
G03*
X16652Y10174I-120J0D01*
G01*
X16297Y10548D02*
G03*
X16297Y10548I-120J0D01*
G01*
Y10174D02*
G03*
X16297Y10174I-120J0D01*
G01*
X11297Y10548D02*
G03*
X11297Y10548I-120J0D01*
G01*
Y10174D02*
G03*
X11297Y10174I-120J0D01*
G01*
X10943Y10548D02*
G03*
X10943Y10548I-120J0D01*
G01*
Y10174D02*
G03*
X10943Y10174I-120J0D01*
G01*
X22163Y10548D02*
G03*
X22163Y10548I-120J0D01*
G01*
Y10174D02*
G03*
X22163Y10174I-120J0D01*
G01*
X21809Y10548D02*
G03*
X21809Y10548I-120J0D01*
G01*
Y10174D02*
G03*
X21809Y10174I-120J0D01*
G01*
X30040Y19670D02*
G03*
X30040Y19670I-120J0D01*
G01*
X24730Y25050D02*
G03*
X24730Y25050I-120J0D01*
G01*
X11240Y23240D02*
G03*
X11240Y23240I-120J0D01*
G01*
M02*
