M48
;Layer_Color=9474304
;FILE_FORMAT=2:4
INCH,LZ
;TYPE=PLATED
T1F00S00C0.0120
T2F00S00C0.0130
T3F00S00C0.0200
T4F00S00C0.0280
T5F00S00C0.0350
T6F00S00C0.0362
T7F00S00C0.0370
T8F00S00C0.0551
T9F00S00C0.0669
T10F00S00C0.0709
T11F00S00C0.0906
T12F00S00C0.1181
T13F00S00C0.1280
T14F00S00C0.1378
%
T01
X04648Y00575
X00148Y00829
X00084Y00781
X00031Y01103
X00191Y01109
X005429Y010548
X005784
Y010174
X005429
X00544Y00921
X00587Y008
X00655Y01125
X00824Y01379
X00927Y01373
X00884Y01518
X0083Y01682
X0108Y01675
X01267Y0176
X01304Y01785
X01286Y01829
Y02024
X01235
X01143Y0203
X01117Y01969
X01058Y0197
X00862Y01969
X01198Y02085
X01327Y02062
X01338Y02001
X01387Y02113
X01556Y0206
X01591Y0202
X01699Y01907
X01906Y01963
X01885Y02007
X01849Y02029
X01452Y01753
X01454Y01635
X01437Y01596
X01406Y01563
X01293Y01461
X01274Y01302
X01125Y01305
X01195Y01126
X011177Y010548
X010823
Y010174
X011177
X01083Y00917
X01127Y00798
X01671Y00797
X01626Y00919
X016177Y010174
X016532
Y010548
X016177
X0173Y01125
X021689Y010548
X022043
Y010174
X021689
X02169Y00922
X02215Y00789
X02281Y01125
X02325Y01475
X02369Y01504
X02451Y01605
X02523Y01635
X02566Y01563
X02641Y01672
X02639Y01728
X0268Y01651
X02755Y01699
X02813Y01652
X02865Y01624
X028343Y018737
X02815Y01935
X02763Y02008
X02749Y0205
X02703Y02057
X02811Y02107
X02581Y02128
X024429Y021049
X0243Y02147
X02424Y020644
X02454Y02054
X024516Y019924
X02394Y01987
X024Y02029
X02383Y02083
X02315Y02091
X02306Y02061
X02303Y0201
X02232Y02024
X02188Y02012
X022023Y020537
X02164Y02092
X02055Y02093
X02082Y0206
X01992Y0211
X01937Y02126
X02031Y01956
X02151Y01984
X02144Y01896
X02134Y0183
X02145Y01777
X02139Y01686
X02091Y01658
X02045Y01804
X023Y01773
X02354Y01889
X0238Y01906
X02402Y01945
X023558Y019582
X025629Y01863
X02721Y01857
X02992Y01967
X03196Y01924
X03242Y0188
X03165Y0182
X031689Y020411
X031147Y021029
X03247Y01675
X03246Y01594
X03285Y01616
X03462Y01461
X03412Y01258
X03309Y01307
X03363Y01124
X032862Y010539
X032507
Y010165
X032862
X03252Y0092
X03296Y00808
X0276Y00807
X02716Y0092
X027081Y010161
X027435
Y010535
X027081
X02819Y01124
X03007Y01359
X0311Y01353
X0306Y01506
X02546Y01368
X02476Y01715
X02417Y01708
X02106Y01451
X02105Y01383
X03621Y01636
X03719Y01637
X03619Y01754
X035777Y017305
X03538Y01821
X03526Y01979
X0351Y02018
X03514Y0208
X03639Y02114
X03868Y01811
X04122Y01786
X04156Y01933
X0421Y01609
X04403Y01645
X04442Y01598
X04624Y01391
X04853Y01344
X04876Y01522
X04531Y01962
X0448Y02085
X04451Y01128
X043745Y010579
X04339
Y010205
X043745
X04335Y00923
X04384Y00807
X04738Y00794
X03839Y00808
X03795Y00921
X03793Y010176
X038284
Y01055
X03793
X03906Y01126
X04053Y01406
X0417Y01353
X04183Y02216
X03566Y02179
X03779Y02823
X03061Y02751
X02991Y02804
X02889Y02757
X02931Y02337
X02995
X02875Y02209
X02712Y02184
X02277Y02191
X02253Y02228
X02205Y02215
X02165Y02195
X02135Y02215
X02105Y022085
X02098Y02258
X02097Y02312
X021743Y023167
Y023497
X022093
Y023167
Y022837
X022433
Y023167
Y023497
X02297Y02357
X023308Y023088
X021743Y022837
X02171Y02434
X02133Y02446
X02096Y02438
X02244Y02435
X02217Y02402
X022Y02547
X02174Y0258
X02148Y02614
X0207Y02601
X02014Y026
X02096Y0269
X02315Y02738
X0236Y02615
X02319Y02549
X02277Y02556
X02424Y02526
X02461Y02505
X02511Y02501
X02437Y02791
X019642Y024171
X01982Y02209
X0194Y0221
X03227Y0225
X03296Y02263
X03349Y02289
X03353Y02174
X01886Y0221
X01841Y02175
X01756Y02207
X01594Y02206
X01582Y02407
X01797Y02392
X01844
X019051Y024328
X01912Y02483
X01899Y02562
X01838Y026
X01753Y02612
X01752Y02794
X017Y028
X01831Y02794
X01328Y026178
X0126Y02555
X01186Y02614
X01137Y027949
X01078Y02797
X009909Y02787
Y02729
X00798Y02517
X00784Y02471
X00767Y0239
X01112Y02324
X01387Y02526
T02
X030544Y022094
Y022566
X031016
Y022094
T03
X007634Y018064
X00877Y01809
X0187Y01894
X02039Y01889
X01915Y01657
Y01547
X02854Y01685
X03032Y01693
X04089Y01657
X0409Y01528
X03886Y02413
X03726Y02474
X03654Y02572
X03678Y022513
X04411Y02757
X03135Y02612
X02828Y02664
X0257Y02684
X02568Y02498
X02511Y02544
T04
X03552Y00575
X04095Y00574
X03015Y00575
X02473Y00576
X01926
X01384
X00845Y00575
X0032Y00576
X00349Y00695
X00272Y00717
X00888Y0069
X00806Y00877
X01349Y00873
X01429Y00692
X01895Y00877
X01977Y00689
X02511Y00686
X02432Y00878
X02968Y00876
X0305Y00683
X02227Y0123
X02347Y01698
X03524Y00873
X03605Y00679
X0415Y00685
X0407Y00873
X01903Y02736
T05
X037398Y003856
X038398
X037898Y004856
X038898
X04334Y00485
X04434
X04384Y00385
X04284
X032965Y003856
X031965
X032465Y004856
X033465
X028032
X027032
X027532Y003856
X026532
X022099
X021099
X021599Y004856
X022599
X017166
X016166
X016666Y003856
X015666
X011232
X010232
X010732Y004856
X011732
X006299
X005299
X005799Y003856
X004799
T06
X045941Y018363
X046729
Y019348
X045941
T07
X00134Y014344
X00234
Y015344
X00134
Y016344
X00234
Y017344
X00134
Y018344
X00234
Y019344
X00134
Y020344
X00234
Y021344
X00134
X00489Y02124
Y02024
Y01924
Y01824
Y01724
X00589
Y01824
Y01924
Y02024
Y02124
Y02224
X00489
Y02324
X00589
Y02424
X00489
Y02524
X00589
Y02624
X00489
X00234Y023344
Y022344
X00134
Y023344
T08
X034809Y023311
Y027061
X041059
Y025811
Y023311
T09
X045351Y012871
X048106
T10
X043343Y023068
Y024722
X045508
Y023068
T11
X047795Y016486
Y021226
T12
X048382Y023895
T13
X036146Y001356
X040146
X041588Y00135
X045588
X034713Y001356
X030713
X02928
X02528
X023847
X019847
X018414
X014414
X01298
X00898
X007547
X003547
T14
X04778Y00147
X00147Y00148
X04777Y0273
X00148
M30
