%FSLAX24Y24*%
%MOIN*%
G70*
G01*
G75*
G04 Layer_Color=32896*
%ADD10R,0.0433X0.0394*%
%ADD11R,0.0394X0.0433*%
%ADD12R,0.0827X0.0827*%
%ADD13O,0.0157X0.0094*%
%ADD14O,0.0094X0.0157*%
%ADD15C,0.0100*%
%ADD16C,0.1969*%
%ADD17C,0.0591*%
%ADD18C,0.0394*%
%ADD19C,0.0240*%
%ADD20R,0.0299X0.2835*%
%ADD21C,0.0098*%
%ADD22C,0.0005*%
%ADD23C,0.0020*%
%ADD24C,0.0060*%
%ADD25R,0.0513X0.0474*%
%ADD26R,0.0474X0.0513*%
%ADD27R,0.0907X0.0907*%
%ADD28O,0.0237X0.0174*%
%ADD29O,0.0174X0.0237*%
%ADD30C,0.2049*%
%ADD31C,0.0671*%
%ADD32C,0.0474*%
%ADD33C,0.0080*%
%ADD34C,0.0320*%
%ADD35R,0.0379X0.2915*%
D15*
X6567Y-179D02*
Y5758D01*
X1366Y-179D02*
Y5758D01*
X6567D01*
X1366Y-179D02*
X6567D01*
D23*
X263Y2054D02*
X295Y2087D01*
X361D01*
X394Y2054D01*
Y1923D01*
X361Y1890D01*
X295D01*
X263Y1923D01*
X66Y1890D02*
X197D01*
X66Y2021D01*
Y2054D01*
X99Y2087D01*
X164D01*
X197Y2054D01*
X5833Y6955D02*
X5866Y6988D01*
X5932D01*
X5965Y6955D01*
Y6824D01*
X5932Y6791D01*
X5866D01*
X5833Y6824D01*
X5637Y6988D02*
X5768D01*
Y6890D01*
X5702Y6923D01*
X5669D01*
X5637Y6890D01*
Y6824D01*
X5669Y6791D01*
X5735D01*
X5768Y6824D01*
X2133Y6936D02*
X2165Y6968D01*
X2231D01*
X2264Y6936D01*
Y6804D01*
X2231Y6772D01*
X2165D01*
X2133Y6804D01*
X1936Y6968D02*
X2001Y6936D01*
X2067Y6870D01*
Y6804D01*
X2034Y6772D01*
X1969D01*
X1936Y6804D01*
Y6837D01*
X1969Y6870D01*
X2067D01*
X433Y5413D02*
Y5610D01*
X335D01*
X302Y5577D01*
Y5512D01*
X335Y5479D01*
X433D01*
X367D02*
X302Y5413D01*
X236D02*
X171D01*
X203D01*
Y5610D01*
X236Y5577D01*
X2329Y6083D02*
X2395D01*
X2362D01*
Y5919D01*
X2395Y5886D01*
X2428D01*
X2461Y5919D01*
X2133Y5886D02*
X2264D01*
X2133Y6017D01*
Y6050D01*
X2165Y6083D01*
X2231D01*
X2264Y6050D01*
M02*
