M48
;Layer_Color=9474304
;FILE_FORMAT=2:5
INCH,LZ
;TYPE=PLATED
T1F00S00C0.01200
T2F00S00C0.02800
T3F00S00C0.04528
T4F00S00C0.12795
T5F00S00C0.13780
%
T01
X-0007866Y0019946
X0005925Y0044291
X0012334Y0042246
X0016234Y0042677
X0015098Y0038228
X0018484Y0032736
X0015889Y0052499
X0010925Y0056004
X002376Y0050453
X005313Y0055394
X0060945Y0049311
X0063504Y0030925
X0070534Y0033646
X0047461Y0002008
X0034783Y0002441
X00175Y0001929
X0026969Y0069685
X0070534Y0059646
T02
X0077869Y0025194
Y0035036
Y0044879
T03
X0035247Y0027436
X004509
T04
X0019669Y0017736
X0059669
T05
X-0Y-0
X007874
Y0070866
X-0
M30
