%FSLAX24Y24*%
%MOIN*%
G70*
G01*
G75*
G04 Layer_Color=2752767*
%ADD10R,0.0433X0.0394*%
%ADD11R,0.0394X0.0433*%
%ADD12R,0.0827X0.0827*%
%ADD13O,0.0157X0.0094*%
%ADD14O,0.0094X0.0157*%
%ADD15C,0.0100*%
%ADD16C,0.1969*%
%ADD17C,0.0591*%
%ADD18C,0.0394*%
%ADD19C,0.0240*%
%ADD20R,0.0299X0.2835*%
%ADD21C,0.0098*%
%ADD22C,0.0005*%
%ADD23C,0.0020*%
%ADD24C,0.0060*%
%ADD25R,0.0513X0.0474*%
%ADD26R,0.0474X0.0513*%
%ADD27R,0.0907X0.0907*%
%ADD28O,0.0237X0.0174*%
%ADD29O,0.0174X0.0237*%
%ADD30C,0.2049*%
%ADD31C,0.0671*%
%ADD32C,0.0474*%
%ADD33C,0.0080*%
%ADD34C,0.0320*%
%ADD35R,0.0379X0.2915*%
%ADD36C,0.0039*%
%ADD37C,0.0000*%
%ADD38C,0.0067*%
D37*
X-200Y-200D02*
Y200D01*
X200D01*
Y-200D01*
X-200D01*
X7674D02*
Y200D01*
X8074D01*
Y-200D01*
X7674D01*
Y6887D02*
Y7287D01*
X8074D01*
Y6887D01*
X7674D01*
X-200D02*
Y7287D01*
X200D01*
Y6887D01*
X-200D01*
X7787Y2319D02*
X7587Y2719D01*
X7987D01*
X7787Y2319D01*
Y4288D02*
X7587Y4688D01*
X7987D01*
X7787Y4288D01*
Y3304D02*
X7587Y3704D01*
X7987D01*
X7787Y3304D01*
X1967Y1574D02*
X2067Y1674D01*
X2167D01*
X2067Y1774D01*
X2167Y1874D01*
X2067D01*
X1967Y1974D01*
X1867Y1874D01*
X1767D01*
X1867Y1774D01*
X1767Y1674D01*
X1867D01*
X1967Y1574D01*
X5967D02*
X6067Y1674D01*
X6167D01*
X6067Y1774D01*
X6167Y1874D01*
X6067D01*
X5967Y1974D01*
X5867Y1874D01*
X5767D01*
X5867Y1774D01*
X5767Y1674D01*
X5867D01*
X5967Y1574D01*
X-987Y1795D02*
X-887Y1995D01*
X-987Y2195D01*
X-787Y2095D01*
X-587Y2195D01*
X-687Y1995D01*
X-587Y1795D01*
X-787Y1895D01*
X-987Y1795D01*
X1648Y3074D02*
X1748Y3274D01*
X1648Y3474D01*
X1848Y3374D01*
X2048Y3474D01*
X1948Y3274D01*
X2048Y3074D01*
X1848Y3174D01*
X1648Y3074D01*
X1310Y3623D02*
X1410Y3823D01*
X1310Y4023D01*
X1510Y3923D01*
X1710Y4023D01*
X1610Y3823D01*
X1710Y3623D01*
X1510Y3723D01*
X1310Y3623D01*
X2176Y4845D02*
X2276Y5045D01*
X2176Y5245D01*
X2376Y5145D01*
X2576Y5245D01*
X2476Y5045D01*
X2576Y4845D01*
X2376Y4945D01*
X2176Y4845D01*
X1423Y4068D02*
X1523Y4268D01*
X1423Y4468D01*
X1623Y4368D01*
X1823Y4468D01*
X1723Y4268D01*
X1823Y4068D01*
X1623Y4168D01*
X1423Y4068D01*
X6150Y2893D02*
X6250Y3093D01*
X6150Y3293D01*
X6350Y3193D01*
X6550Y3293D01*
X6450Y3093D01*
X6550Y2893D01*
X6350Y2993D01*
X6150Y2893D01*
X5894Y4731D02*
X5994Y4931D01*
X5894Y5131D01*
X6094Y5031D01*
X6294Y5131D01*
X6194Y4931D01*
X6294Y4731D01*
X6094Y4831D01*
X5894Y4731D01*
X393Y4229D02*
X493Y4429D01*
X393Y4629D01*
X593Y4529D01*
X793Y4629D01*
X693Y4429D01*
X793Y4229D01*
X593Y4329D01*
X393Y4229D01*
X5113Y5339D02*
X5213Y5539D01*
X5113Y5739D01*
X5313Y5639D01*
X5513Y5739D01*
X5413Y5539D01*
X5513Y5339D01*
X5313Y5439D01*
X5113Y5339D01*
X1389Y5050D02*
X1489Y5250D01*
X1389Y5450D01*
X1589Y5350D01*
X1789Y5450D01*
X1689Y5250D01*
X1789Y5050D01*
X1589Y5150D01*
X1389Y5050D01*
X893Y5400D02*
X993Y5600D01*
X893Y5800D01*
X1093Y5700D01*
X1293Y5800D01*
X1193Y5600D01*
X1293Y5400D01*
X1093Y5500D01*
X893Y5400D01*
X4546Y1D02*
X4646Y201D01*
X4546Y401D01*
X4746Y301D01*
X4946Y401D01*
X4846Y201D01*
X4946Y1D01*
X4746Y101D01*
X4546Y1D01*
X3278Y44D02*
X3378Y244D01*
X3278Y444D01*
X3478Y344D01*
X3678Y444D01*
X3578Y244D01*
X3678Y44D01*
X3478Y144D01*
X3278Y44D01*
X1550Y-7D02*
X1650Y193D01*
X1550Y393D01*
X1750Y293D01*
X1950Y393D01*
X1850Y193D01*
X1950Y-7D01*
X1750Y93D01*
X1550Y-7D01*
X1033Y4025D02*
X1133Y4225D01*
X1033Y4425D01*
X1233Y4325D01*
X1433Y4425D01*
X1333Y4225D01*
X1433Y4025D01*
X1233Y4125D01*
X1033Y4025D01*
X6853Y3165D02*
X6953Y3365D01*
X6853Y3565D01*
X7053Y3465D01*
X7253Y3565D01*
X7153Y3365D01*
X7253Y3165D01*
X7053Y3265D01*
X6853Y3165D01*
Y5765D02*
X6953Y5965D01*
X6853Y6165D01*
X7053Y6065D01*
X7253Y6165D01*
X7153Y5965D01*
X7253Y5765D01*
X7053Y5865D01*
X6853Y5765D01*
X2497Y6769D02*
X2597Y6969D01*
X2497Y7168D01*
X2697Y7068D01*
X2897Y7168D01*
X2797Y6969D01*
X2897Y6769D01*
X2697Y6869D01*
X2497Y6769D01*
D38*
X3725Y2744D02*
G03*
X3725Y2744I-200J0D01*
G01*
X4709D02*
G03*
X4709Y2744I-200J0D01*
G01*
M02*
