%FSLAX24Y24*%
%MOIN*%
G70*
G01*
G75*
G04 Layer_Physical_Order=2*
G04 Layer_Color=16711680*
%ADD10R,0.0433X0.0394*%
%ADD11R,0.0394X0.0433*%
%ADD12R,0.0827X0.0827*%
%ADD13O,0.0157X0.0094*%
%ADD14O,0.0094X0.0157*%
%ADD15C,0.0100*%
%ADD16C,0.1969*%
%ADD17C,0.0591*%
%ADD18C,0.0394*%
%ADD19C,0.0240*%
%ADD20R,0.0299X0.2835*%
G36*
X8837Y6292D02*
Y795D01*
X8651Y728D01*
X8629Y755D01*
X8467Y888D01*
X8283Y987D01*
X8082Y1048D01*
X7874Y1068D01*
X7666Y1048D01*
X7465Y987D01*
X7281Y888D01*
X7119Y755D01*
X6986Y593D01*
X6887Y409D01*
X6826Y208D01*
X6806Y-0D01*
X6826Y-208D01*
X6887Y-409D01*
X6986Y-593D01*
X7119Y-755D01*
X7146Y-777D01*
X7079Y-963D01*
X795D01*
X728Y-777D01*
X755Y-755D01*
X888Y-593D01*
X987Y-409D01*
X1048Y-208D01*
X1068Y-0D01*
X1048Y208D01*
X987Y409D01*
X888Y593D01*
X755Y755D01*
X593Y888D01*
X409Y987D01*
X208Y1048D01*
X-0Y1068D01*
X-208Y1048D01*
X-409Y987D01*
X-593Y888D01*
X-755Y755D01*
X-777Y728D01*
X-963Y795D01*
Y1660D01*
X-945Y1686D01*
X-810Y1797D01*
X-787Y1792D01*
X-772Y1795D01*
X-473Y1495D01*
X-436Y1470D01*
Y1313D01*
X155D01*
X155Y1313D01*
Y1313D01*
X155D01*
X234D01*
X294Y1313D01*
X294Y1313D01*
X294Y1313D01*
X479D01*
Y1588D01*
X529D01*
Y1638D01*
X824D01*
Y1864D01*
X660D01*
Y3433D01*
X842Y3508D01*
X1723Y2627D01*
X1684Y2434D01*
X1605Y2401D01*
X1454Y2286D01*
X1339Y2136D01*
X1267Y1961D01*
X1242Y1774D01*
X1267Y1586D01*
X1339Y1411D01*
X1454Y1261D01*
X1605Y1146D01*
X1779Y1074D01*
X1967Y1049D01*
X2154Y1074D01*
X2329Y1146D01*
X2479Y1261D01*
X2594Y1411D01*
X2667Y1586D01*
X2692Y1774D01*
X2688Y1797D01*
X2865Y1884D01*
X4544Y205D01*
X4543Y201D01*
X4559Y123D01*
X4603Y58D01*
X4669Y14D01*
X4746Y-2D01*
X4824Y14D01*
X4889Y58D01*
X4933Y123D01*
X4949Y201D01*
X4933Y278D01*
X4889Y344D01*
X4824Y388D01*
X4746Y403D01*
X4722Y399D01*
X3278Y1843D01*
X3306Y1983D01*
X3880D01*
X3930Y1993D01*
X3973Y2022D01*
X3973Y2022D01*
X3973Y2022D01*
X4351Y2400D01*
X4363Y2391D01*
X4509Y2362D01*
X4655Y2391D01*
X4779Y2474D01*
X4861Y2598D01*
X4890Y2744D01*
X4861Y2890D01*
X4779Y3013D01*
X4655Y3096D01*
X4509Y3125D01*
X4363Y3096D01*
X4239Y3013D01*
X4157Y2890D01*
X4128Y2744D01*
X4157Y2598D01*
X4165Y2585D01*
X3982Y2403D01*
X3830Y2527D01*
X3877Y2598D01*
X3906Y2744D01*
X3877Y2890D01*
X3794Y3013D01*
X3671Y3096D01*
X3525Y3125D01*
X3379Y3096D01*
X3366Y3088D01*
X3085Y3369D01*
X3103Y3463D01*
X4899D01*
X5731Y2631D01*
X5693Y2438D01*
X5605Y2401D01*
X5454Y2286D01*
X5339Y2136D01*
X5267Y1961D01*
X5242Y1774D01*
X5267Y1586D01*
X5339Y1411D01*
X5454Y1261D01*
X5605Y1146D01*
X5779Y1074D01*
X5967Y1049D01*
X6154Y1074D01*
X6329Y1146D01*
X6479Y1261D01*
X6594Y1411D01*
X6667Y1586D01*
X6692Y1774D01*
X6667Y1961D01*
X6594Y2136D01*
X6479Y2286D01*
X6329Y2401D01*
X6332Y2413D01*
X6828D01*
X6878Y2423D01*
X6921Y2452D01*
X6921Y2452D01*
X6921Y2452D01*
X7707Y3238D01*
X7787Y3223D01*
X7894Y3244D01*
X7986Y3305D01*
X8046Y3396D01*
X8068Y3504D01*
X8046Y3611D01*
X7986Y3702D01*
X7894Y3763D01*
X7787Y3785D01*
X7679Y3763D01*
X7588Y3702D01*
X7527Y3611D01*
X7506Y3504D01*
X7507Y3496D01*
X7362Y3363D01*
X7250Y3397D01*
X7256Y3365D01*
X7246Y3315D01*
X7103D01*
Y3172D01*
X7053Y3162D01*
X7021Y3168D01*
X7078Y2980D01*
X6774Y2676D01*
X6058D01*
X5859Y2875D01*
X5876Y2961D01*
X5879Y2961D01*
X5879Y2961D01*
Y2961D01*
X6199D01*
X6207Y2949D01*
X6273Y2905D01*
X6350Y2890D01*
X6428Y2905D01*
X6494Y2949D01*
X6538Y3015D01*
X6553Y3093D01*
X6538Y3170D01*
X6494Y3236D01*
X6428Y3280D01*
X6350Y3295D01*
X6273Y3280D01*
X6207Y3236D01*
X6199Y3224D01*
X5931D01*
X5185Y3969D01*
X5143Y3998D01*
X5093Y4008D01*
X4945D01*
Y4175D01*
X4945D01*
Y5203D01*
X5108D01*
X5158Y5213D01*
X5201Y5242D01*
X5299Y5340D01*
X5313Y5337D01*
X5391Y5352D01*
X5456Y5396D01*
X5500Y5462D01*
X5516Y5539D01*
X5500Y5617D01*
X5456Y5683D01*
X5391Y5727D01*
X5313Y5742D01*
X5235Y5727D01*
X5170Y5683D01*
X5134Y5629D01*
X4956Y5682D01*
X4945Y5693D01*
Y5973D01*
X6013D01*
X6064Y5983D01*
X6106Y6012D01*
X6106Y6012D01*
X6106Y6012D01*
X6216Y6122D01*
X6245Y6164D01*
X6245Y6164D01*
X6245Y6164D01*
X6246Y6171D01*
X6438D01*
Y6171D01*
X6450D01*
X6589Y6032D01*
Y5616D01*
X6105Y5132D01*
X6094Y5134D01*
X6017Y5118D01*
X5951Y5074D01*
X5907Y5009D01*
X5892Y4931D01*
X5907Y4854D01*
X5951Y4788D01*
X6017Y4744D01*
X6094Y4728D01*
X6172Y4744D01*
X6238Y4788D01*
X6282Y4854D01*
X6297Y4931D01*
X6294Y4949D01*
X6740Y5396D01*
X6922Y5321D01*
Y3516D01*
X6910Y3508D01*
X6866Y3442D01*
X6861Y3415D01*
X7246D01*
X7241Y3442D01*
X7197Y3508D01*
X7185Y3516D01*
Y5813D01*
X7197Y5821D01*
X7241Y5887D01*
X7246Y5915D01*
X7053D01*
Y6015D01*
X7246D01*
X7246Y6015D01*
X7404Y6132D01*
X7465Y6100D01*
X7666Y6039D01*
X7874Y6018D01*
X8082Y6039D01*
X8283Y6100D01*
X8467Y6198D01*
X8629Y6331D01*
X8651Y6358D01*
X8837Y6292D01*
D02*
G37*
G36*
X7146Y7864D02*
X7119Y7842D01*
X6986Y7680D01*
X6887Y7495D01*
X6826Y7295D01*
X6806Y7087D01*
X6817Y6973D01*
X6639Y6889D01*
X6573Y6955D01*
X6531Y6983D01*
X6480Y6993D01*
X5691D01*
X5641Y6983D01*
X5598Y6955D01*
X5381Y6738D01*
X5370Y6722D01*
X5178D01*
Y6236D01*
X4945D01*
Y7167D01*
X4584D01*
X4584Y7167D01*
X4584Y7167D01*
X4489Y7167D01*
X4467D01*
X4445D01*
X4445D01*
X4349Y7167D01*
X4349Y7167D01*
Y7167D01*
X4348D01*
Y7295D01*
X4338Y7345D01*
X4310Y7387D01*
X4270Y7427D01*
X4227Y7456D01*
X4177Y7466D01*
X2925D01*
X2875Y7456D01*
X2832Y7427D01*
X2604Y7199D01*
X2576Y7157D01*
X2569Y7122D01*
X2554Y7112D01*
X2510Y7046D01*
X2504Y7018D01*
X2697D01*
Y6919D01*
X2504D01*
X2510Y6891D01*
X2530Y6860D01*
X2437Y6687D01*
X2182D01*
X2182Y6687D01*
X2182Y6687D01*
X2121Y6687D01*
X2082D01*
X2043D01*
X1982Y6687D01*
X1982Y6687D01*
X1982Y6687D01*
X1452D01*
Y6542D01*
X1403D01*
X1353Y6532D01*
X1310Y6504D01*
X552Y5746D01*
X524Y5703D01*
X514Y5653D01*
Y5544D01*
X375Y5405D01*
X350D01*
X310D01*
X271D01*
X211Y5405D01*
X211Y5405D01*
X211Y5405D01*
X-320D01*
Y4854D01*
X-156D01*
Y3465D01*
X-233Y3387D01*
X-262Y3345D01*
X-272Y3295D01*
Y1923D01*
X-414Y1864D01*
X-436D01*
X-436Y1864D01*
X-436D01*
X-587Y1980D01*
X-584Y1995D01*
X-599Y2072D01*
X-643Y2138D01*
X-709Y2182D01*
X-787Y2197D01*
X-810Y2192D01*
X-945Y2303D01*
X-963Y2329D01*
Y6292D01*
X-777Y6358D01*
X-755Y6331D01*
X-593Y6198D01*
X-409Y6100D01*
X-208Y6039D01*
X-0Y6018D01*
X208Y6039D01*
X409Y6100D01*
X593Y6198D01*
X755Y6331D01*
X888Y6493D01*
X987Y6678D01*
X1048Y6878D01*
X1068Y7087D01*
X1048Y7295D01*
X987Y7495D01*
X888Y7680D01*
X755Y7842D01*
X593Y7975D01*
X612Y8049D01*
X7079D01*
X7146Y7864D01*
D02*
G37*
%LPC*%
G36*
X824Y1538D02*
X579D01*
Y1313D01*
X824D01*
Y1538D01*
D02*
G37*
G36*
X3478Y447D02*
X3401Y431D01*
X3335Y387D01*
X3293Y324D01*
X1901D01*
X1893Y336D01*
X1828Y380D01*
X1750Y396D01*
X1672Y380D01*
X1607Y336D01*
X1563Y270D01*
X1547Y193D01*
X1563Y115D01*
X1607Y50D01*
X1672Y6D01*
X1750Y-10D01*
X1828Y6D01*
X1893Y50D01*
X1901Y62D01*
X3394D01*
X3401Y57D01*
X3478Y41D01*
X3556Y57D01*
X3622Y101D01*
X3666Y167D01*
X3681Y244D01*
X3666Y322D01*
X3622Y387D01*
X3556Y431D01*
X3478Y447D01*
D02*
G37*
G36*
X7787Y2800D02*
X7679Y2779D01*
X7588Y2718D01*
X7527Y2627D01*
X7506Y2519D01*
X7527Y2412D01*
X7588Y2321D01*
X7679Y2260D01*
X7787Y2238D01*
X7894Y2260D01*
X7986Y2321D01*
X8046Y2412D01*
X8068Y2519D01*
X8046Y2627D01*
X7986Y2718D01*
X7894Y2779D01*
X7787Y2800D01*
D02*
G37*
G36*
Y4769D02*
X7679Y4747D01*
X7588Y4687D01*
X7527Y4595D01*
X7506Y4488D01*
X7527Y4380D01*
X7588Y4289D01*
X7679Y4228D01*
X7787Y4207D01*
X7894Y4228D01*
X7986Y4289D01*
X8046Y4380D01*
X8068Y4488D01*
X8046Y4595D01*
X7986Y4687D01*
X7894Y4747D01*
X7787Y4769D01*
D02*
G37*
G36*
X7003Y3315D02*
X6861D01*
X6866Y3287D01*
X6910Y3221D01*
X6976Y3177D01*
X7003Y3172D01*
Y3315D01*
D02*
G37*
%LPD*%
D10*
X6143Y6446D02*
D03*
X5474D02*
D03*
X2417Y6411D02*
D03*
X1747D02*
D03*
X-24Y5130D02*
D03*
X645D02*
D03*
X529Y1588D02*
D03*
X-140D02*
D03*
D15*
X593Y3943D02*
X1993Y2542D01*
X2126D01*
X2393D01*
X2697Y6969D02*
Y7106D01*
X2925Y7335D01*
X1848Y3274D02*
Y3484D01*
X1510Y3823D02*
X1848Y3484D01*
X2376Y5045D02*
X2596D01*
X3217Y5667D01*
X-140Y1588D02*
Y3295D01*
X-24Y3411D01*
Y5130D01*
X4717Y5671D02*
Y6105D01*
X6013D02*
X6123Y6215D01*
Y6446D02*
X6143D01*
X4717Y5335D02*
Y5671D01*
X3103Y3595D02*
X4953D01*
X6003Y2545D01*
X6828D01*
X7787Y3504D01*
X-380Y1588D02*
X-140D01*
X-787Y1995D02*
X-380Y1588D01*
X4035Y3876D02*
X5093D01*
X3717Y4195D02*
X4035Y3876D01*
X3717Y4195D02*
Y5671D01*
X3217Y5667D02*
Y5671D01*
X1623Y4268D02*
X2823Y3068D01*
Y2597D02*
Y3068D01*
Y2597D02*
X3306Y2115D01*
X3554D02*
X3880D01*
X4509Y2744D01*
X3306Y2115D02*
X3554D01*
X5093Y3876D02*
X5876Y3093D01*
X6350D01*
X5474Y6446D02*
Y6645D01*
X6094Y4936D02*
X6720Y5562D01*
X6094Y4931D02*
Y4936D01*
X6720Y5562D02*
Y6622D01*
X5474Y6645D02*
X5691Y6862D01*
X6480D01*
X6720Y6622D01*
X593Y3943D02*
Y4429D01*
X5013Y5335D02*
X5108D01*
X5313Y5539D01*
X645Y5130D02*
X1139D01*
X3525Y2744D01*
X1589Y5109D02*
X3103Y3595D01*
X1589Y5109D02*
Y5250D01*
X2417Y6019D02*
Y6411D01*
X1998Y5600D02*
X2417Y6019D01*
X1093Y5600D02*
X1998D01*
X645Y5130D02*
Y5653D01*
X1403Y6411D01*
X1747D01*
X4734Y201D02*
X4746D01*
X2393Y2542D02*
X4734Y201D01*
X1750Y193D02*
X3427D01*
X3478Y244D01*
X529Y1588D02*
Y3754D01*
X343Y3939D02*
X529Y3754D01*
X343Y3939D02*
Y4685D01*
X773D01*
X1233Y4225D01*
X7053Y3365D02*
Y5965D01*
X4717Y5335D02*
X5013D01*
X4717Y6105D02*
X6013D01*
X6123Y6215D02*
Y6446D01*
X2697Y6969D02*
X2761D01*
X2925Y7335D02*
X4177D01*
X4217Y7295D01*
Y5671D02*
Y7295D01*
D16*
X-0Y-0D02*
D03*
X7874D02*
D03*
Y7087D02*
D03*
X-0D02*
D03*
D17*
X3525Y2744D02*
D03*
X4509D02*
D03*
D18*
X7787Y2519D02*
D03*
Y4488D02*
D03*
Y3504D02*
D03*
D19*
X-787Y1995D02*
D03*
X1848Y3274D02*
D03*
X1510Y3823D02*
D03*
X2376Y5045D02*
D03*
X1623Y4268D02*
D03*
X6350Y3093D02*
D03*
X6094Y4931D02*
D03*
X593Y4429D02*
D03*
X5313Y5539D02*
D03*
X1589Y5250D02*
D03*
X1093Y5600D02*
D03*
X4746Y201D02*
D03*
X3478Y244D02*
D03*
X1750Y193D02*
D03*
X1233Y4225D02*
D03*
X7053Y3365D02*
D03*
Y5965D02*
D03*
X2697Y6969D02*
D03*
D20*
X4717Y5671D02*
D03*
X3217D02*
D03*
X3717D02*
D03*
X4217D02*
D03*
M02*
