%FSLAX24Y24*%
%MOIN*%
G70*
G01*
G75*
%ADD10R,0.0433X0.0394*%
%ADD11R,0.0394X0.0433*%
%ADD12R,0.0827X0.0827*%
%ADD13O,0.0157X0.0094*%
%ADD14O,0.0094X0.0157*%
%ADD15C,0.0100*%
%ADD16C,0.1969*%
%ADD17C,0.0591*%
%ADD18C,0.0394*%
%ADD19C,0.0240*%
%ADD20R,0.0299X0.2835*%
D10*
X5090Y783D02*
D03*
X4421D02*
D03*
X-37Y5096D02*
D03*
X632D02*
D03*
X515Y1589D02*
D03*
X-154D02*
D03*
X5163Y6063D02*
D03*
X5832D02*
D03*
X2812Y6063D02*
D03*
X2142D02*
D03*
X2945Y773D02*
D03*
X3615D02*
D03*
D11*
X7065Y2235D02*
D03*
Y2905D02*
D03*
X8508Y2908D02*
D03*
Y2239D02*
D03*
X7047Y4274D02*
D03*
Y4943D02*
D03*
X8494Y4952D02*
D03*
Y4283D02*
D03*
D12*
X297Y3228D02*
D03*
D13*
X1006Y3130D02*
D03*
Y2933D02*
D03*
Y2736D02*
D03*
Y3327D02*
D03*
Y3524D02*
D03*
Y3720D02*
D03*
X-411D02*
D03*
Y3524D02*
D03*
Y3327D02*
D03*
Y2736D02*
D03*
Y2933D02*
D03*
Y3130D02*
D03*
D14*
X396Y2520D02*
D03*
X593D02*
D03*
X789D02*
D03*
X199D02*
D03*
X2D02*
D03*
X-195D02*
D03*
Y3937D02*
D03*
X2D02*
D03*
X199D02*
D03*
X789D02*
D03*
X593D02*
D03*
X396D02*
D03*
D16*
X-0Y-0D02*
D03*
X7874D02*
D03*
Y7087D02*
D03*
X-0D02*
D03*
D17*
X3525Y2744D02*
D03*
X4509D02*
D03*
D18*
X7787Y2519D02*
D03*
Y4488D02*
D03*
Y3504D02*
D03*
M02*
