%FSLAX24Y24*%
%MOIN*%
G70*
G01*
G75*
G04 Layer_Color=16711935*
%ADD10R,0.0433X0.0394*%
%ADD11R,0.0394X0.0433*%
%ADD12R,0.0827X0.0827*%
%ADD13O,0.0157X0.0094*%
%ADD14O,0.0094X0.0157*%
%ADD15C,0.0100*%
%ADD16C,0.1969*%
%ADD17C,0.0591*%
%ADD18C,0.0394*%
%ADD19C,0.0240*%
%ADD20R,0.0299X0.2835*%
%ADD21C,0.0098*%
%ADD22C,0.0005*%
%ADD23C,0.0020*%
%ADD24C,0.0060*%
%ADD25R,0.0513X0.0474*%
%ADD26R,0.0474X0.0513*%
%ADD27R,0.0907X0.0907*%
%ADD28O,0.0237X0.0174*%
%ADD29O,0.0174X0.0237*%
%ADD30C,0.2049*%
%ADD31C,0.0671*%
%ADD32C,0.0474*%
%ADD33C,0.0080*%
%ADD34C,0.0320*%
%ADD35R,0.0379X0.2915*%
D25*
X6143Y6446D02*
D03*
X5474D02*
D03*
X2417Y6411D02*
D03*
X1747D02*
D03*
X-24Y5130D02*
D03*
X645D02*
D03*
X529Y1588D02*
D03*
X-140D02*
D03*
D30*
X-0Y-0D02*
D03*
X7874D02*
D03*
Y7087D02*
D03*
X-0D02*
D03*
D31*
X3525Y2744D02*
D03*
X4509D02*
D03*
D32*
X7787Y2519D02*
D03*
Y4488D02*
D03*
Y3504D02*
D03*
D33*
X1967Y1774D02*
D03*
X5967D02*
D03*
D34*
X-787Y1995D02*
D03*
X1848Y3274D02*
D03*
X1510Y3823D02*
D03*
X2376Y5045D02*
D03*
X1623Y4268D02*
D03*
X6350Y3093D02*
D03*
X6094Y4931D02*
D03*
X593Y4429D02*
D03*
X5313Y5539D02*
D03*
X1589Y5250D02*
D03*
X1093Y5600D02*
D03*
X4746Y201D02*
D03*
X3478Y244D02*
D03*
X1750Y193D02*
D03*
X1233Y4225D02*
D03*
X7053Y3365D02*
D03*
Y5965D02*
D03*
X2697Y6969D02*
D03*
D35*
X4717Y5671D02*
D03*
X3217D02*
D03*
X3717D02*
D03*
X4217D02*
D03*
M02*
