%FSLAX24Y24*%
%MOIN*%
G70*
G01*
G75*
G04 Layer_Physical_Order=2*
G04 Layer_Color=32768*
%ADD10R,0.0433X0.0394*%
%ADD11R,0.0591X0.1102*%
%ADD12R,0.0394X0.0433*%
%ADD13R,0.0709X0.0256*%
%ADD14R,0.0256X0.0709*%
%ADD15R,0.0256X0.1024*%
%ADD16R,0.1024X0.0256*%
%ADD17R,0.0276X0.0354*%
%ADD18C,0.0394*%
%ADD19R,0.0709X0.0630*%
%ADD20R,0.0354X0.0276*%
%ADD21O,0.0571X0.0098*%
%ADD22R,0.0236X0.0748*%
%ADD23R,0.1220X0.0748*%
%ADD24R,0.0276X0.0394*%
%ADD25R,0.0256X0.0157*%
%ADD26R,0.0591X0.0512*%
%ADD27R,0.0394X0.0276*%
%ADD28R,0.0276X0.0709*%
%ADD29O,0.0748X0.0236*%
%ADD30R,0.0276X0.0177*%
%ADD31R,0.0650X0.0965*%
%ADD32R,0.0177X0.0207*%
%ADD33O,0.0335X0.0118*%
%ADD34O,0.0118X0.0335*%
%ADD35R,0.0984X0.0984*%
%ADD36O,0.0098X0.0256*%
%ADD37O,0.0256X0.0098*%
%ADD38R,0.0276X0.0118*%
%ADD39R,0.0681X0.0728*%
%ADD40O,0.0402X0.0161*%
%ADD41R,0.1102X0.1102*%
%ADD42R,0.0118X0.0118*%
%ADD43R,0.0118X0.0118*%
%ADD44R,0.0866X0.1102*%
%ADD45R,0.1102X0.1102*%
%ADD46R,0.0433X0.0472*%
%ADD47C,0.0080*%
%ADD48C,0.0120*%
%ADD49C,0.0200*%
%ADD50C,0.0250*%
%ADD51C,0.0350*%
%ADD52C,0.0060*%
%ADD53C,0.0500*%
%ADD54C,0.0100*%
%ADD55C,0.0300*%
%ADD56C,0.0705*%
%ADD57C,0.0500*%
%ADD58C,0.1969*%
%ADD59C,0.1299*%
%ADD60C,0.1496*%
%ADD61R,0.0630X0.0630*%
%ADD62C,0.0630*%
%ADD63C,0.0945*%
%ADD64C,0.0200*%
%ADD65C,0.0240*%
%ADD66C,0.0400*%
%ADD67C,0.0260*%
%ADD68C,0.0160*%
%ADD69C,0.0400*%
%ADD70C,0.0750*%
%ADD71C,0.1680*%
%ADD72C,0.0770*%
%ADD73C,0.1581*%
%ADD74C,0.1109*%
%ADD75C,0.1306*%
%ADD76C,0.0762*%
%ADD77C,0.0951*%
%ADD78C,0.1069*%
%ADD79C,0.0520*%
%ADD80C,0.0600*%
%ADD81C,0.0680*%
D69*
X-201Y-200D02*
Y28974D01*
X49445D01*
Y-200D02*
Y28974D01*
X-201Y-200D02*
X49445D01*
D70*
X21099Y3856D02*
D03*
X22599Y4856D02*
D03*
X21599D02*
D03*
X15666Y3856D02*
D03*
X17166Y4856D02*
D03*
X16166D02*
D03*
X10232Y3856D02*
D03*
X11732Y4856D02*
D03*
X10732D02*
D03*
X26532Y3856D02*
D03*
X28032Y4856D02*
D03*
X27032D02*
D03*
X4799Y3856D02*
D03*
X6299Y4856D02*
D03*
X5299D02*
D03*
X37898D02*
D03*
X38898D02*
D03*
X37398Y3856D02*
D03*
X32465Y4856D02*
D03*
X33465D02*
D03*
X31965Y3856D02*
D03*
X43340Y4850D02*
D03*
X44340D02*
D03*
X42840Y3850D02*
D03*
D71*
X23847Y1356D02*
D03*
X19847D02*
D03*
X18414D02*
D03*
X14414D02*
D03*
X12980D02*
D03*
X8980D02*
D03*
X29280D02*
D03*
X25280D02*
D03*
X7547D02*
D03*
X3547D02*
D03*
X36146D02*
D03*
X40146D02*
D03*
X30713D02*
D03*
X34713D02*
D03*
X41588Y1350D02*
D03*
X45588D02*
D03*
D72*
X2340Y14344D02*
D03*
X1340D02*
D03*
X2340Y15344D02*
D03*
Y16344D02*
D03*
X1340D02*
D03*
X2340Y17344D02*
D03*
Y18344D02*
D03*
X1340D02*
D03*
X2340Y19344D02*
D03*
Y20344D02*
D03*
X1340D02*
D03*
X2340Y21344D02*
D03*
X1340Y22344D02*
D03*
X4890Y17240D02*
D03*
X5890D02*
D03*
X4890Y18240D02*
D03*
X5890D02*
D03*
X4890Y19240D02*
D03*
X5890D02*
D03*
X4890Y20240D02*
D03*
X5890D02*
D03*
X4890Y21240D02*
D03*
X5890D02*
D03*
X4890Y22240D02*
D03*
X5890D02*
D03*
X4890Y23240D02*
D03*
X5890D02*
D03*
X4890Y24240D02*
D03*
X5890D02*
D03*
X4890Y25240D02*
D03*
X5890D02*
D03*
Y26240D02*
D03*
D73*
X48382Y23895D02*
D03*
D74*
X43343Y24722D02*
D03*
Y23068D02*
D03*
D75*
X47795Y21226D02*
D03*
Y16486D02*
D03*
D76*
X45941Y19348D02*
D03*
Y18363D02*
D03*
X46729D02*
D03*
D77*
X34809Y27061D02*
D03*
Y23311D02*
D03*
X41059Y27061D02*
D03*
Y25811D02*
D03*
D78*
X48106Y12871D02*
D03*
X45351D02*
D03*
D79*
X13280Y26178D02*
D03*
X11860Y26140D02*
D03*
X28750Y22090D02*
D03*
X29310Y23370D02*
D03*
X41830Y22160D02*
D03*
X21050Y13830D02*
D03*
X32960Y22630D02*
D03*
X25660Y15630D02*
D03*
X29950Y23370D02*
D03*
X31689Y20411D02*
D03*
X31960Y19240D02*
D03*
X31650Y18200D02*
D03*
X13270Y20620D02*
D03*
X13040Y17850D02*
D03*
X16990Y19070D02*
D03*
X35260Y19790D02*
D03*
X35380Y18210D02*
D03*
X17560Y22070D02*
D03*
X15940Y22060D02*
D03*
X19120Y24830D02*
D03*
X27210Y18570D02*
D03*
X24760Y17150D02*
D03*
X20910Y16580D02*
D03*
X19642Y24171D02*
D03*
X19051Y24328D02*
D03*
X28890Y27570D02*
D03*
X7840Y24710D02*
D03*
X7980Y25170D02*
D03*
X8620Y19690D02*
D03*
X11430Y20300D02*
D03*
X12670Y17600D02*
D03*
X33490Y22890D02*
D03*
X35660Y21790D02*
D03*
X32270Y22500D02*
D03*
X34120Y12580D02*
D03*
X10780Y27970D02*
D03*
X9909Y27290D02*
D03*
X11370Y27949D02*
D03*
X9909Y27870D02*
D03*
X1910Y11090D02*
D03*
X18990Y25620D02*
D03*
X7670Y23900D02*
D03*
X42100Y16090D02*
D03*
X44800Y20850D02*
D03*
X30610Y27510D02*
D03*
X38680Y18110D02*
D03*
X37190Y16370D02*
D03*
X17000Y28000D02*
D03*
X23150Y27380D02*
D03*
X17520Y27940D02*
D03*
X1480Y8290D02*
D03*
X310Y11030D02*
D03*
X18310Y27940D02*
D03*
X32850Y16160D02*
D03*
X15560Y20600D02*
D03*
X14370Y15960D02*
D03*
X12740Y13020D02*
D03*
X22770Y25560D02*
D03*
X20960Y26900D02*
D03*
X21740Y25800D02*
D03*
X21480Y26140D02*
D03*
X20700Y26010D02*
D03*
X22000Y25470D02*
D03*
X23190Y25490D02*
D03*
X23600Y26150D02*
D03*
X41700Y13530D02*
D03*
X32460Y15940D02*
D03*
X40530Y14060D02*
D03*
X22440Y24350D02*
D03*
X22170Y24020D02*
D03*
X21710Y24340D02*
D03*
X11980Y20850D02*
D03*
X12350Y20240D02*
D03*
X18410Y21750D02*
D03*
X17970Y23920D02*
D03*
X18440D02*
D03*
X19400Y22100D02*
D03*
X19370Y21260D02*
D03*
X21330Y24460D02*
D03*
X20960Y24380D02*
D03*
X20970Y23120D02*
D03*
X20980Y22580D02*
D03*
X21650Y21950D02*
D03*
X21350Y22150D02*
D03*
X23308Y23088D02*
D03*
X21050Y22085D02*
D03*
X22050Y22150D02*
D03*
X22530Y22280D02*
D03*
X22770Y21910D02*
D03*
X22970Y23570D02*
D03*
X19820Y22090D02*
D03*
X20450Y18040D02*
D03*
X13380Y20010D02*
D03*
X11170Y19690D02*
D03*
X10580Y19700D02*
D03*
X20310Y19560D02*
D03*
X19060Y19630D02*
D03*
X18850Y20070D02*
D03*
X18490Y20290D02*
D03*
X21440Y18960D02*
D03*
X35777Y17305D02*
D03*
X28650Y16240D02*
D03*
X5870Y8000D02*
D03*
X11270Y7980D02*
D03*
X16710Y7970D02*
D03*
X22150Y7890D02*
D03*
X8240Y13790D02*
D03*
X30070Y13590D02*
D03*
X27600Y8070D02*
D03*
X32960Y8080D02*
D03*
X38390D02*
D03*
X43840Y8070D02*
D03*
X23000Y17730D02*
D03*
X35140Y20800D02*
D03*
X26800Y16510D02*
D03*
X26410Y16720D02*
D03*
X14060Y15630D02*
D03*
X24510Y16050D02*
D03*
X27550Y16990D02*
D03*
X28343Y18737D02*
D03*
X28130Y16520D02*
D03*
X31147Y21029D02*
D03*
X24300Y21470D02*
D03*
X28110Y21070D02*
D03*
X23940Y19870D02*
D03*
X23150Y20910D02*
D03*
X23830Y20830D02*
D03*
X23800Y19060D02*
D03*
X24516Y19924D02*
D03*
X24540Y20540D02*
D03*
X24240Y20644D02*
D03*
X23540Y18890D02*
D03*
X24020Y19450D02*
D03*
X23558Y19582D02*
D03*
X23060Y20610D02*
D03*
X23030Y20100D02*
D03*
X21880Y20120D02*
D03*
X20820Y20600D02*
D03*
X21640Y20920D02*
D03*
X22023Y20537D02*
D03*
X22320Y20240D02*
D03*
X21390Y16860D02*
D03*
X21450Y17770D02*
D03*
X21510Y19840D02*
D03*
X23690Y15040D02*
D03*
X27490Y20500D02*
D03*
X27630Y20080D02*
D03*
X27030Y20570D02*
D03*
X24610Y25050D02*
D03*
D80*
X36780Y22513D02*
D03*
X40900Y15280D02*
D03*
X19150Y15470D02*
D03*
X7634Y18064D02*
D03*
X28540Y16850D02*
D03*
X25680Y24980D02*
D03*
X25110Y25440D02*
D03*
D81*
X24320Y8780D02*
D03*
X29680Y8760D02*
D03*
X40700Y8730D02*
D03*
X35240D02*
D03*
X18950Y8770D02*
D03*
X22270Y12300D02*
D03*
X13490Y8730D02*
D03*
X8060Y8770D02*
D03*
X2720Y7170D02*
D03*
X19030Y27360D02*
D03*
M02*
